<?xml version="1.0" encoding="UTF-8"?>
<svg version="1.1" xmlns="http://www.w3.org/2000/svg" width="625" height="209">
<path d="M0 0 C206.25 0 412.5 0 625 0 C625 68.97 625 137.94 625 209 C418.75 209 212.5 209 0 209 C0 140.03 0 71.06 0 0 Z " fill="#FEFCFC" transform="translate(0,0)"/>
<path d="M0 0 C0 50.49 0 100.98 0 153 C-47.52 153 -95.04 153 -144 153 C-144 131.93524096 -144 131.93524096 -142.875 125.1875 C-142.74303223 124.36822021 -142.61106445 123.54894043 -142.47509766 122.70483398 C-136.01103927 85.24671789 -117.43939603 49.2038527 -86.125 26.625 C-60.82396201 9.09119369 -30.66361814 0 0 0 Z " fill="#CE1E24" transform="translate(167,50)"/>
<path d="M0 0 C36.01884665 1.51658302 70.70944608 17.68830497 97 42 C97.83144531 42.76054688 98.66289062 43.52109375 99.51953125 44.3046875 C129.19158271 72.67761237 141.8146548 113.18318496 145 153 C137.41 153 129.82 153 122 153 C121.5875 150.195 121.175 147.39 120.75 144.5 C118.49621777 130.0069455 115.03403081 116.41543327 109 103 C108.70609375 102.34499512 108.4121875 101.68999023 108.109375 101.01513672 C93.81349017 69.70502878 68.43629942 46.31124619 36.36962891 33.86474609 C24.4275734 29.50674479 12.5077433 26.27413514 0 24 C0 16.08 0 8.16 0 0 Z " fill="#7654A2" transform="translate(174,50)"/>
<path d="M0 0 C3.58875 -0.0928125 3.58875 -0.0928125 7.25 -0.1875 C8.37003418 -0.22846802 8.37003418 -0.22846802 9.51269531 -0.27026367 C12.38766365 -0.30622011 14.60917276 -0.1957339 17.19714355 1.10037231 C19.83165644 3.87629694 19.50772471 5.90401586 19.51757812 9.68701172 C19.5245874 10.36216827 19.53159668 11.03732483 19.53881836 11.73294067 C19.55642784 13.96560774 19.54476406 16.19700745 19.53125 18.4296875 C19.53394474 19.98284142 19.537827 21.5359937 19.54284668 23.08914185 C19.5487462 26.3458867 19.54016706 29.60219286 19.52148438 32.85888672 C19.49873187 37.02767446 19.51179057 41.19543004 19.53577423 45.36417961 C19.55025275 48.57276128 19.54561629 51.78109974 19.53526306 54.98968887 C19.53259945 56.52623746 19.53585271 58.06280832 19.54518127 59.5993309 C19.55537722 61.75154494 19.53980513 63.9021077 19.51757812 66.05419922 C19.51280457 67.88928543 19.51280457 67.88928543 19.50793457 69.76144409 C18.90420406 73.61078833 17.69059092 75.23667882 15 78 C7.89293263 83.01456844 0.23602651 83.48582016 -8.1875 83.5625 C-9.57654541 83.58437378 -9.57654541 83.58437378 -10.99365234 83.60668945 C-20.43611903 83.46770578 -27.40306695 80.26442165 -34.2734375 73.859375 C-41.32220897 66.26839034 -41.29644366 57.60906666 -41.21875 47.703125 C-40.70586025 39.02063429 -37.51803485 32.2885978 -31.125 26.3125 C-24.13859541 21.1425606 -18.44483688 19.85680502 -9.875 19.875 C-8.65554688 19.87242188 -7.43609375 19.86984375 -6.1796875 19.8671875 C-3 20 -3 20 0 21 C0 14.07 0 7.14 0 0 Z " fill="#C31F24" transform="translate(583,88)"/>
<path d="M0 0 C5.824472 4.67261746 10.39066965 11.02512347 11.71875 18.4921875 C12.36992452 30.78878536 11.50844781 39.65769401 3.71875 49.4921875 C-2.07506465 55.28600215 -9.5916978 57.9671567 -17.67700195 58.09936523 C-18.51577881 58.08462158 -19.35455566 58.06987793 -20.21875 58.0546875 C-21.09684326 58.04445557 -21.97493652 58.03422363 -22.87963867 58.02368164 C-29.63401121 57.80219595 -34.84960952 56.72994265 -40.28125 52.4921875 C-41.27318359 51.73035156 -41.27318359 51.73035156 -42.28515625 50.953125 C-48.49364391 45.48343441 -51.05253761 39.19912502 -51.73046875 31.046875 C-52.23463242 21.12302102 -51.57785112 12.64149225 -45.28125 4.4921875 C-33.42037015 -7.87955421 -14.26273441 -9.42708131 0 0 Z " fill="#C81E24" transform="translate(449.28125,113.5078125)"/>
<path d="M0 0 C6.40577166 5.24108591 11.9617997 11.6585481 12.97753906 20.15283203 C13.80772942 31.38650844 12.71652769 40.59195505 5.5 49.625 C0.44377663 55.0190314 -6.14581563 58.26334245 -13.56640625 58.5234375 C-24.5978387 58.82845893 -32.93466374 58.88908263 -41.51171875 51.23046875 C-49.37253726 43.17207132 -50.73725123 35.45325608 -50.67456055 24.56518555 C-50.3801365 15.66845894 -47.65560549 8.51002354 -41.25 2.25 C-28.82418724 -6.98574903 -13.53739393 -7.28936596 0 0 Z " fill="#C71F24" transform="translate(520.25,112.75)"/>
<path d="M0 0 C29.99930862 3.26079442 57.39153276 16.0290863 77.50390625 38.83984375 C92.66377937 58.05992636 101.90997617 82.43064335 101 107 C93.74 107 86.48 107 79 107 C78.9175 105.185 78.835 103.37 78.75 101.5 C77.33396713 84.07335545 71.4762362 67.40424389 60 54 C59.52691406 53.37351563 59.05382812 52.74703125 58.56640625 52.1015625 C46.43524542 36.79391317 27.38881811 29.43977282 9.1171875 24.57495117 C6.06961917 23.74734238 3.03643859 22.86755388 0 22 C0 14.74 0 7.48 0 0 Z " fill="#7655A2" transform="translate(175,96)"/>
<path d="M0 0 C0.76183594 -0.02835938 1.52367187 -0.05671875 2.30859375 -0.0859375 C5.51117723 0.56901025 6.5136267 1.84002247 8.5625 4.375 C9.3022722 6.88558708 9.8233349 9.14162141 10.23046875 11.703125 C10.41818596 12.76487946 10.41818596 12.76487946 10.60969543 13.8480835 C11.00476196 16.10476385 11.37743128 18.36450864 11.75 20.625 C12.01095096 22.12915309 12.27330727 23.63306308 12.53710938 25.13671875 C13.70407168 31.86705012 14.74928622 38.5917682 15.5625 45.375 C18.13654141 38.09242748 20.01017391 30.73850026 21.75585938 23.22070312 C22.06426758 21.93776367 22.06426758 21.93776367 22.37890625 20.62890625 C22.55881104 19.85877197 22.73871582 19.0886377 22.92407227 18.29516602 C23.5625 16.375 23.5625 16.375 25.5625 14.375 C28.2421875 14.07421875 28.2421875 14.07421875 31.4375 14.0625 C33.01144531 14.03736328 33.01144531 14.03736328 34.6171875 14.01171875 C38.00724443 14.42985574 39.09675986 15.06366045 41.5625 17.375 C42.64331055 19.83935547 42.64331055 19.83935547 43.44921875 22.7421875 C43.74763672 23.79277344 44.04605469 24.84335937 44.35351562 25.92578125 C44.64935547 27.02277344 44.94519531 28.11976562 45.25 29.25 C45.55744141 30.33925781 45.86488281 31.42851563 46.18164062 32.55078125 C47.46487368 37.1389712 48.67521243 41.69212296 49.5625 46.375 C51.00277409 40.99624734 52.00672704 35.79309431 52.59765625 30.26171875 C52.68123886 29.52548782 52.76482147 28.7892569 52.85093689 28.03071594 C53.1140369 25.70851338 53.37009757 23.38561552 53.625 21.0625 C53.88424043 18.7216335 54.14507492 16.3809814 54.40977478 14.04072571 C54.57342205 12.59203502 54.73384856 11.14297591 54.89064026 9.69352722 C55.21968749 6.76481089 55.6268308 4.18200761 56.5625 1.375 C58.87527781 0.21861109 60.36341221 0.17631072 62.9375 0.125 C64.09378906 0.08632813 64.09378906 0.08632813 65.2734375 0.046875 C68.21530158 0.46857565 69.50462895 1.23407586 71.5625 3.375 C74.73906249 17.29581795 68.5720986 35.47524376 65.4375 49.0625 C65.27926758 49.75053711 65.12103516 50.43857422 64.95800781 51.14746094 C62.97375737 59.35485322 62.97375737 59.35485322 59.87109375 61.59765625 C56.73837497 62.65249726 53.92721599 62.75258786 50.625 62.8125 C49.41972656 62.85246094 48.21445312 62.89242187 46.97265625 62.93359375 C42.4734708 62.19661377 41.23366248 61.0548532 38.5625 57.375 C37.31122524 54.20942156 36.51153911 51.00081935 35.75 47.6875 C35.42612305 46.3871582 35.42612305 46.3871582 35.09570312 45.06054688 C33.5625 38.80605159 33.5625 38.80605159 33.5625 36.375 C32.9025 36.375 32.2425 36.375 31.5625 36.375 C31.48 37.385625 31.3975 38.39625 31.3125 39.4375 C30.75416765 43.74906645 29.83730067 47.96603149 28.8125 52.1875 C28.5954541 53.17472046 28.5954541 53.17472046 28.37402344 54.18188477 C27.56531506 57.36076218 26.83610186 59.13966414 24.328125 61.296875 C21.08104292 62.56268666 18.54507395 62.80843157 15.0625 62.8125 C13.9590625 62.83183594 12.855625 62.85117188 11.71875 62.87109375 C7.75724231 62.24843103 6.28047335 61.32102249 3.5625 58.375 C0.38967447 51.6700169 -0.9343922 44.40691396 -2.5 37.1875 C-2.75587891 36.04474609 -3.01175781 34.90199219 -3.27539062 33.72460938 C-8.25757782 11.06782492 -8.25757782 11.06782492 -7.4375 2.375 C-4.37702368 0.33468245 -3.50254006 0.05906476 0 0 Z " fill="#C42126" transform="translate(347.4375,21.625)"/>
<path d="M0 0 C11.47738735 -0.3702383 11.47738735 -0.3702383 13.65711975 1.17396545 C15.50562925 3.68754937 15.38717239 5.40440275 15.40405273 8.50952148 C15.41673691 9.63756699 15.42942108 10.76561249 15.44248962 11.92784119 C15.43955399 13.14661453 15.43661835 14.36538788 15.43359375 15.62109375 C15.4388356 16.87253677 15.44407745 18.1239798 15.44947815 19.41334534 C15.45590767 22.0624221 15.45598483 24.7106394 15.44604492 27.35961914 C15.43455949 30.7505656 15.4547568 34.14047002 15.48396206 37.53127956 C15.50674541 40.76955629 15.49985655 44.00775563 15.49609375 47.24609375 C15.50732773 48.46284286 15.51856171 49.67959198 15.53013611 50.93321228 C15.51606468 52.63000877 15.51606468 52.63000877 15.50170898 54.36108398 C15.50154282 55.3557518 15.50137665 56.35041962 15.50120544 57.37522888 C14.86328128 60.71598451 13.58742067 61.86709742 11 64 C2.61467693 69.26520286 -8.06283812 69.28152151 -17.55859375 67.52734375 C-23.75308608 65.51081311 -28.60351343 61.58039322 -31.66796875 55.91796875 C-33.48731815 51.36809661 -33.51454311 46.90899133 -33.5 42.0625 C-33.52835938 41.20720703 -33.55671875 40.35191406 -33.5859375 39.47070312 C-33.60763609 32.35898883 -31.42846879 27.62683392 -26.55688477 22.47338867 C-20.81214139 17.28988636 -14.97616168 16.70354876 -7.625 16.875 C-3.850625 16.936875 -3.850625 16.936875 0 17 C0 11.39 0 5.78 0 0 Z " fill="#C02025" transform="translate(587,17)"/>
<path d="M0 0 C0.98558899 -0.00004028 1.97117798 -0.00008057 2.9866333 -0.00012207 C5.06097829 0.00522217 7.13532351 0.02275775 9.20947266 0.05175781 C12.39417827 0.0937969 15.5767811 0.09280899 18.76171875 0.0859375 C20.7786606 0.09642385 22.79559153 0.10935896 24.8125 0.125 C25.76767517 0.12520142 26.72285034 0.12540283 27.70697021 0.12561035 C28.58838684 0.14152222 29.46980347 0.15743408 30.37792969 0.17382812 C31.1548114 0.18224731 31.93169312 0.1906665 32.7321167 0.19934082 C34.640625 0.59375 34.640625 0.59375 36.640625 3.59375 C37.3091886 10.50224057 37.3091886 10.50224057 35.04638672 14.1965332 C32.640625 16.59375 32.640625 16.59375 29.43261719 17.16137695 C28.19672852 17.13519287 26.96083984 17.10900879 25.6875 17.08203125 C24.69716766 17.07141914 24.69716766 17.07141914 23.68682861 17.06059265 C21.58692008 17.03269727 19.48972121 16.96998287 17.390625 16.90625 C15.9635803 16.88116017 14.53649362 16.85834817 13.109375 16.83789062 C9.61791931 16.78714272 6.13228783 16.68932471 2.640625 16.59375 C2.640625 21.87375 2.640625 27.15375 2.640625 32.59375 C5.63769531 32.54154297 5.63769531 32.54154297 8.6953125 32.48828125 C10.62808108 32.46742404 12.56085243 32.44667202 14.49365234 32.42895508 C16.49981874 32.40642749 18.50579026 32.3683143 20.51171875 32.33007812 C21.76855469 32.32041016 23.02539062 32.31074219 24.3203125 32.30078125 C25.48288574 32.2850708 26.64545898 32.26936035 27.84326172 32.25317383 C28.7663916 32.36556396 29.68952148 32.4779541 30.640625 32.59375 C32.76874592 35.78593138 32.9392373 37.69794432 33.1015625 41.4609375 C32.40950183 44.66318435 30.91831165 46.27136109 28.640625 48.59375 C25.79980469 49.16137695 25.79980469 49.16137695 22.5625 49.08203125 C21.51674805 49.06954346 20.47099609 49.05705566 19.39355469 49.04418945 C18.07258789 48.99866943 16.75162109 48.95314941 15.390625 48.90625 C11.183125 48.803125 6.975625 48.7 2.640625 48.59375 C2.640625 57.83375 2.640625 67.07375 2.640625 76.59375 C-1.2265625 76.6865625 -1.2265625 76.6865625 -5.171875 76.78125 C-6.38387573 76.82221802 -6.38387573 76.82221802 -7.62036133 76.86401367 C-12.84992727 76.92502855 -12.84992727 76.92502855 -15.06919861 75.48190308 C-16.97410209 72.69410647 -16.76281681 70.4461311 -16.79516602 67.09033203 C-16.80524185 66.43468262 -16.81531769 65.7790332 -16.82569885 65.10351562 C-16.85419556 62.93602445 -16.86005618 60.76922934 -16.86328125 58.6015625 C-16.87292196 57.09324863 -16.88301441 55.58493759 -16.89353943 54.07662964 C-16.91150551 50.91413878 -16.91706008 47.75189376 -16.9152832 44.58935547 C-16.91497847 40.54134116 -16.95591682 36.49490734 -17.00759983 32.44726753 C-17.04099831 29.33133746 -17.04703975 26.21578785 -17.04545403 23.09969711 C-17.04898937 21.60775178 -17.06223289 20.1157961 -17.08545113 18.62402725 C-17.2443418 7.35986394 -17.2443418 7.35986394 -15.34121704 3.56182861 C-11.24419186 -0.55598075 -5.37755979 -0.09309316 0 0 Z " fill="#CB2227" transform="translate(356.359375,93.40625)"/>
<path d="M0 0 C6.23397904 3.6511824 10.23231205 9.16491517 12.4375 16 C13.3248561 25.64567608 12.66873152 33.00627856 7.375 41.1875 C2.1602999 46.78563393 -3.97373104 49.20196135 -11.57373047 49.54272461 C-20.15208854 49.62297952 -25.74462535 48.2104855 -32.3125 42.6875 C-37.66464968 36.29465455 -39.21884598 31.76414969 -39.0625 23.5625 C-39.07796875 22.75490234 -39.0934375 21.94730469 -39.109375 21.11523438 C-39.06568517 14.33784902 -37.36868937 8.94252246 -32.6328125 3.9765625 C-31.99085938 3.53054687 -31.34890625 3.08453125 -30.6875 2.625 C-30.05070312 2.16351563 -29.41390625 1.70203125 -28.7578125 1.2265625 C-20.27210395 -3.51456292 -8.86817442 -3.99673415 0 0 Z " fill="#C82025" transform="translate(464.5625,36)"/>
<path d="M0 0 C19.68501691 4.2793515 36.07242026 12.67683959 47.80859375 29.609375 C51.35288783 35.24975697 53.90747818 40.93437655 55.9375 47.25 C56.14906738 47.89904297 56.36063477 48.54808594 56.57861328 49.21679688 C58.06428976 54.19855459 58 57.49246606 58 63 C50.08 63 42.16 63 34 63 C33.01 58.05 33.01 58.05 32 53 C30.77655731 49.81031013 29.58347773 46.98809086 28 44 C27.60167969 43.2471875 27.20335937 42.494375 26.79296875 41.71875 C20.67769278 31.42675817 11.12293928 26.46689017 0 23 C0 15.41 0 7.82 0 0 Z " fill="#7C57A3" transform="translate(175,140)"/>
<path d="M0 0 C-1.02738281 0.556875 -2.05476563 1.11375 -3.11328125 1.6875 C-11.50353933 6.28543051 -19.48623725 11.03669623 -27 17 C-27.51127441 17.40444336 -28.02254883 17.80888672 -28.54931641 18.22558594 C-58.53955 42.15654988 -77.33301952 76.43270391 -82.4609375 114.4140625 C-82.68927304 116.60484945 -82.85587321 118.80206642 -83 121 C-88.61 121 -94.22 121 -100 121 C-101.75121155 93.85622103 -86.82571132 65.36002094 -69.71484375 45.32421875 C-67.51767748 42.84062943 -65.27601369 40.41134423 -63 38 C-62.37738281 37.32453125 -61.75476563 36.6490625 -61.11328125 35.953125 C-47.5656742 21.75227904 -30.07678744 11.72971355 -12.5625 3.25 C-11.65628906 2.80720703 -10.75007813 2.36441406 -9.81640625 1.90820312 C-8.97078125 1.51052734 -8.12515625 1.11285156 -7.25390625 0.703125 C-6.50439697 0.34895508 -5.7548877 -0.00521484 -4.98266602 -0.37011719 C-3 -1 -3 -1 0 0 Z " fill="#FEF7F6" transform="translate(136,65)"/>
<path d="M0 0 C1.93681161 -0.08107583 3.8745934 -0.13922475 5.8125 -0.1875 C6.89144531 -0.22230469 7.97039063 -0.25710937 9.08203125 -0.29296875 C12 0 12 0 13.86543274 1.12324524 C15.52245943 3.86423101 15.35937859 6.02543329 15.34057617 9.21557617 C15.34034958 10.4966777 15.34012299 11.77777924 15.33988953 13.09770203 C15.32456957 14.49612781 15.30892158 15.89455004 15.29296875 17.29296875 C15.28737268 18.72357234 15.28310263 20.15418169 15.28010559 21.58479309 C15.26865756 25.34801132 15.23919115 29.11088156 15.20599365 32.8739624 C15.17529163 36.71475517 15.1616 40.55560423 15.14648438 44.39648438 C15.11432106 51.93114814 15.06312566 59.46552529 15 67 C12.87561661 67.08078641 10.7503677 67.13909141 8.625 67.1875 C7.44164062 67.22230469 6.25828125 67.25710937 5.0390625 67.29296875 C3.53472656 67.14794922 3.53472656 67.14794922 2 67 C-0.3639196 63.45412059 -0.24355585 61.98496318 -0.22705078 57.78442383 C-0.22689972 56.5033223 -0.22674866 55.22222076 -0.22659302 53.90229797 C-0.21637973 52.50387416 -0.20594774 51.10545192 -0.1953125 49.70703125 C-0.19158178 48.27642515 -0.18873509 46.84581648 -0.18673706 45.41520691 C-0.17910522 41.65207856 -0.15946069 37.88910489 -0.1373291 34.1260376 C-0.11686094 30.28521822 -0.10773327 26.44437383 -0.09765625 22.60351562 C-0.07621429 15.06893994 -0.04208387 7.53449166 0 0 Z " fill="#C51D23" transform="translate(528,17)"/>
<path d="M0 0 C2.46484375 1.76171875 2.46484375 1.76171875 4 4 C4.22970769 6.86090492 3.57032088 9.1483956 3 12 C2.01257813 12.06058594 1.02515625 12.12117188 0.0078125 12.18359375 C-1.27351562 12.26738281 -2.55484375 12.35117187 -3.875 12.4375 C-5.15117187 12.51871094 -6.42734375 12.59992187 -7.7421875 12.68359375 C-10.88300152 12.79206027 -10.88300152 12.79206027 -13 14 C-13.33 25.88 -13.66 37.76 -14 50 C-18.29 50 -22.58 50 -27 50 C-30.06094812 46.93905188 -29.34513111 43.34048798 -29.37109375 39.23046875 C-29.38463646 37.92073845 -29.38463646 37.92073845 -29.39845276 36.58454895 C-29.41297648 34.73437946 -29.42184725 32.88415836 -29.42553711 31.03393555 C-29.43741138 28.2085852 -29.48655486 25.38543445 -29.53710938 22.56054688 C-29.54657605 20.7630315 -29.55380991 18.96550269 -29.55859375 17.16796875 C-29.58789223 15.9036628 -29.58789223 15.9036628 -29.61778259 14.61381531 C-29.58414911 10.2199225 -29.43434916 8.53998267 -26.58569336 4.99853516 C-19.11692743 -0.77422642 -9.12889776 -1.34967406 0 0 Z " fill="#C92328" transform="translate(516,34)"/>
<path d="M0 0 C4.99476308 2.57471394 8.67089947 6.55925847 11.1875 11.5625 C11.6825 15.5225 11.6825 15.5225 12.1875 19.5625 C-2.3325 19.5625 -16.8525 19.5625 -31.8125 19.5625 C-31.8125 12.50924586 -30.17723839 8.9788712 -25.28515625 4.01171875 C-17.86882071 -2.38557832 -9.24436778 -3.47855076 0 0 Z " fill="#C71F24" transform="translate(178.8125,23.4375)"/>
<path d="M0 0 C4.35086836 2.45918646 6.4290396 5.28711881 8 10 C8.62717674 16.74429786 9.10564783 23.2814191 5 29 C4.2575 30.175625 4.2575 30.175625 3.5 31.375 C-0.69370109 34.10090571 -5.16764944 33.83168051 -10 33 C-13.91806691 30.20138078 -15.51818044 27.49700024 -17 23 C-17.63881691 16.37123753 -18.13046257 9.55476 -14 4 C-9.93846018 -0.53936804 -5.78601072 -1.03096191 0 0 Z " fill="#FDF7F6" transform="translate(506,123)"/>
<path d="M0 0 C4.76695694 2.59073747 6.41119656 5.89910476 8 11 C8.8456965 17.33693134 7.82209268 23.26403926 5 29 C2.71185673 31.84284467 1.21566327 32.79171503 -2.37109375 33.40625 C-6.91198167 33.67613933 -9.25514581 33.54312284 -13 30.8125 C-17.68846566 24.21934516 -17.63481921 17.87572584 -17 10 C-14.18833743 1.56501229 -8.54896511 -1.50772657 0 0 Z " fill="#FDF9F9" transform="translate(434,123)"/>
<path d="M0 0 C0 10.23 0 20.46 0 31 C-4.20576723 33.10288362 -9.43194692 32.5307529 -14 32 C-17.46145301 30.4140491 -19.42714025 28.15964318 -21.125 24.72265625 C-22.93210456 19.09965681 -23.05616921 12.35690539 -21.27734375 6.703125 C-16.81680878 -1.74841494 -8.51259228 -2.83753076 0 0 Z " fill="#FDF9F8" transform="translate(583,124)"/>
<path d="M0 0 C1.625 0.9140625 1.625 0.9140625 3.875 3.3515625 C4.375 6.9765625 4.375 6.9765625 3.875 10.3515625 C3.215 11.0115625 2.555 11.6715625 1.875 12.3515625 C2.37 12.6815625 2.865 13.0115625 3.375 13.3515625 C5.4186938 16.07648757 5.29647182 18.14550808 5.16796875 21.48046875 C4.875 23.3515625 4.875 23.3515625 3.5625 25.2890625 C-0.11808217 27.60646609 -3.45675289 27.48601668 -7.6875 27.4765625 C-8.84378906 27.47914063 -10.00007813 27.48171875 -11.19140625 27.484375 C-14.125 27.3515625 -14.125 27.3515625 -16.125 26.3515625 C-16.125 17.7715625 -16.125 9.1915625 -16.125 0.3515625 C-11.57750418 -1.92218541 -4.78506457 -1.46014838 0 0 Z " fill="#BB2226" transform="translate(356.125,177.6484375)"/>
<path d="M0 0 C4.81003113 0.03435737 4.81003113 0.03435737 7.75 2.6875 C10.68714294 8.17868028 10.67606229 13.26797142 10.1875 19.375 C9.01193191 22.72536905 8.21271913 24.56947068 5.4375 26.75 C2.08203129 27.68207464 -0.34248609 27.8620195 -3.8125 27.375 C-7.16715133 24.57802728 -9.65029563 21.1512708 -10.05078125 16.765625 C-10.20412669 10.27669158 -10.20530843 6.30027005 -5.8125 1.375 C-4.16155878 -0.27594122 -2.26764063 0.08632307 0 0 Z " fill="#FDF7F6" transform="translate(450.8125,45.625)"/>
<path d="M0 0 C1.04542969 -0.01998047 2.09085938 -0.03996094 3.16796875 -0.06054688 C4.17472656 -0.05990234 5.18148437 -0.05925781 6.21875 -0.05859375 C7.13591797 -0.06044678 8.05308594 -0.0622998 8.99804688 -0.06420898 C12.29537803 0.59699472 13.48205144 1.78654366 15.5 4.4375 C15.95410156 6.45214844 15.95410156 6.45214844 15.890625 8.546875 C15.87128906 9.67802734 15.87128906 9.67802734 15.8515625 10.83203125 C15.81804688 11.60933594 15.78453125 12.38664063 15.75 13.1875 C15.73195313 13.98027344 15.71390625 14.77304688 15.6953125 15.58984375 C15.64833082 17.53958348 15.57659044 19.48869878 15.5 21.4375 C13.52 21.4375 11.54 21.4375 9.5 21.4375 C9.17 16.4875 8.84 11.5375 8.5 6.4375 C6.025 5.9425 6.025 5.9425 3.5 5.4375 C3.5 10.7175 3.5 15.9975 3.5 21.4375 C1.19 21.4375 -1.12 21.4375 -3.5 21.4375 C-3.83 16.4875 -4.16 11.5375 -4.5 6.4375 C-6.15 6.1075 -7.8 5.7775 -9.5 5.4375 C-9.5 10.7175 -9.5 15.9975 -9.5 21.4375 C-11.48 21.4375 -13.46 21.4375 -15.5 21.4375 C-15.607834 18.49902347 -15.68721916 15.56448849 -15.75 12.625 C-15.78351562 11.79162109 -15.81703125 10.95824219 -15.8515625 10.09960938 C-15.86445312 9.29716797 -15.87734375 8.49472656 -15.890625 7.66796875 C-15.91157227 6.92957764 -15.93251953 6.19118652 -15.95410156 5.43041992 C-15.5 3.4375 -15.5 3.4375 -13.80566406 1.70019531 C-9.51098297 -0.65178378 -4.78865285 -0.03247545 0 0 Z " fill="#D0282B" transform="translate(586.5,182.5625)"/>
<path d="M0 0 C1.31677734 0.00966797 1.31677734 0.00966797 2.66015625 0.01953125 C4.9375 0.1875 4.9375 0.1875 6.9375 1.1875 C6.9375 9.4375 6.9375 17.6875 6.9375 26.1875 C3.2060172 27.4313276 -0.19341732 27.8518142 -4.0625 27.1875 C-7.58930379 25.22732364 -9.76483114 23.08050657 -11.0625 19.1875 C-11.2072963 17.23274991 -11.28317502 15.2723862 -11.3125 13.3125 C-11.35117187 11.76949219 -11.35117187 11.76949219 -11.390625 10.1953125 C-11.01457858 6.7482203 -10.12351514 4.95157171 -8.0625 2.1875 C-4.79122414 0.00664943 -3.78873277 -0.06137859 0 0 Z " fill="#FDF7F6" transform="translate(580.0625,45.8125)"/>
<path d="M0 0 C3.63467079 1.62400184 4.77408696 2.66113044 7 6 C7.70764306 10.85476051 7.709087 14.80188749 5.1875 19.0625 C1.80516897 22.05827891 -1.46046653 22.43586593 -5.92578125 22.3203125 C-8.73768668 21.88608228 -10.86166073 20.8586084 -12.92578125 18.890625 C-15.35880342 14.60850598 -14.84332119 9.69665032 -14 5 C-10.59388175 -0.71348868 -6.1361333 -1.0356813 0 0 Z " fill="#CC2428" transform="translate(559,183)"/>
<path d="M0 0 C3 1.5625 3 1.5625 5 4 C5.8125 7.75 5.8125 7.75 6 11 C1.35150485 13.3992233 -2.91086074 13.19957409 -8 13 C-7.01 14.485 -7.01 14.485 -6 16 C-3.33346095 16.36460453 -3.33346095 16.36460453 -0.375 16.1875 C0.62789063 16.16042969 1.63078125 16.13335937 2.6640625 16.10546875 C3.82035156 16.05326172 3.82035156 16.05326172 5 16 C4.625 18.4375 4.625 18.4375 4 21 C0.27287842 22.86356079 -3.9420732 22.56549975 -8 22 C-11.62531608 20.1258346 -13.69121639 17.92635083 -15 14 C-15.57279236 6.8973747 -15.57279236 6.8973747 -13.125 3.0625 C-9.19017726 -0.75659266 -5.26776893 -0.63686326 0 0 Z " fill="#BF2629" transform="translate(463,183)"/>
<path d="M0 0 C1.66611905 -0.042721 3.33382885 -0.04063832 5 0 C6.94090826 1.94090826 6.39919435 5.47293902 6.5625 8.0625 C6.64628906 9.35285156 6.73007812 10.64320313 6.81640625 11.97265625 C6.87699219 12.97167969 6.93757813 13.97070312 7 15 C8.98 15.66 10.96 16.32 13 17 C13 11.39 13 5.78 13 0 C14.65 0 16.3 0 18 0 C20 2 20 2 20.1953125 5.9140625 C20.18200376 7.48449351 20.15813602 9.05486221 20.125 10.625 C20.11597656 11.42679688 20.10695313 12.22859375 20.09765625 13.0546875 C20.07406223 15.03658523 20.03819065 17.01832981 20 19 C16.40755969 20.94870503 13.56048236 22.43012436 9.4375 22.4375 C8.71433594 22.45683594 7.99117188 22.47617188 7.24609375 22.49609375 C3.8156947 21.738423 2.32770483 20.64806839 0 18 C-0.60902046 14.89395803 -0.47244681 11.89972177 -0.3125 8.75 C-0.28994141 7.90953125 -0.26738281 7.0690625 -0.24414062 6.203125 C-0.18537714 4.13465036 -0.09569885 2.06709512 0 0 Z " fill="#AB2B2D" transform="translate(366,183)"/>
<path d="M0 0 C0.92683594 -0.01933594 1.85367187 -0.03867188 2.80859375 -0.05859375 C6.53962917 0.61352185 8.0784971 1.55587793 10.5625 4.4375 C11.16106405 7.38096958 11.03603741 10.19963674 10.875 13.1875 C10.85244141 13.98027344 10.82988281 14.77304688 10.80664062 15.58984375 C10.74790471 17.5398762 10.65822654 19.48893312 10.5625 21.4375 C8.2525 21.4375 5.9425 21.4375 3.5625 21.4375 C3.2325 16.4875 2.9025 11.5375 2.5625 6.4375 C0.9125 6.4375 -0.7375 6.4375 -2.4375 6.4375 C-2.7675 11.3875 -3.0975 16.3375 -3.4375 21.4375 C-5.4175 21.4375 -7.3975 21.4375 -9.4375 21.4375 C-9.545334 18.49902347 -9.62471916 15.56448849 -9.6875 12.625 C-9.72101563 11.79162109 -9.75453125 10.95824219 -9.7890625 10.09960938 C-9.88725934 3.98685639 -9.88725934 3.98685639 -7.76171875 1.390625 C-5.02630917 0.2688772 -2.95698415 0.00410123 0 0 Z " fill="#BC262A" transform="translate(433.4375,182.5625)"/>
<path d="M0 0 C0.86625 -0.00515625 1.7325 -0.0103125 2.625 -0.015625 C5 0.25 5 0.25 8 2.25 C7.67 3.57 7.34 4.89 7 6.25 C4.03 5.92 1.06 5.59 -2 5.25 C-2 6.24 -2 7.23 -2 8.25 C-0.9275 8.3325 0.145 8.415 1.25 8.5 C5.31315563 9.31263113 6.66296171 9.88466486 9 13.25 C9.5625 15.75 9.5625 15.75 9 18.25 C6.77396715 20.99544051 5.07430277 22.11143547 1.546875 22.56640625 C-5.30015924 22.71656051 -5.30015924 22.71656051 -9 20.25 C-8.67 18.6 -8.34 16.95 -8 15.25 C-4.7 15.91 -1.4 16.57 2 17.25 C2 16.26 2 15.27 2 14.25 C0.9275 14.1675 -0.145 14.085 -1.25 14 C-5 13.25 -5 13.25 -7.5 11.625 C-9 9.25 -9 9.25 -8.9375 5.625 C-7.48915042 0.41094152 -4.96819238 -0.02957257 0 0 Z " fill="#C22528" transform="translate(399,182.75)"/>
<path d="M0 0 C0.86625 0.00386719 1.7325 0.00773438 2.625 0.01171875 C5 0.3125 5 0.3125 8 2.3125 C7.67 3.6325 7.34 4.9525 7 6.3125 C4.03 5.9825 1.06 5.6525 -2 5.3125 C-2 6.3025 -2 7.2925 -2 8.3125 C-1.37351562 8.43367187 -0.74703125 8.55484375 -0.1015625 8.6796875 C1.12433594 8.93105469 1.12433594 8.93105469 2.375 9.1875 C3.18710937 9.34992188 3.99921875 9.51234375 4.8359375 9.6796875 C7 10.3125 7 10.3125 9 12.3125 C9.4446858 15.72175781 9.36050196 17.66016313 7.6875 20.6875 C3.44833721 23.25071471 -1.16281165 22.9728146 -6 22.3125 C-6.66 21.6525 -7.32 20.9925 -8 20.3125 C-8 18.9925 -8 17.6725 -8 16.3125 C-4.7 16.6425 -1.4 16.9725 2 17.3125 C2 16.3225 2 15.3325 2 14.3125 C0.63875 14.1578125 0.63875 14.1578125 -0.75 14 C-4.1329807 13.28436947 -5.74036249 12.91977405 -8 10.3125 C-8.74478276 4.35423794 -8.74478276 4.35423794 -6.78515625 1.61328125 C-4.41852097 -0.11120354 -2.90397754 -0.05617814 0 0 Z " fill="#BB3132" transform="translate(502,182.6875)"/>
<path d="M0 0 C0.86625 0.00386719 1.7325 0.00773438 2.625 0.01171875 C5 0.3125 5 0.3125 8 2.3125 C7.67 3.6325 7.34 4.9525 7 6.3125 C4.03 5.9825 1.06 5.6525 -2 5.3125 C-2 6.3025 -2 7.2925 -2 8.3125 C-1.37351562 8.42207031 -0.74703125 8.53164062 -0.1015625 8.64453125 C0.71570313 8.80308594 1.53296875 8.96164063 2.375 9.125 C3.18710937 9.27582031 3.99921875 9.42664063 4.8359375 9.58203125 C7 10.3125 7 10.3125 9 13.3125 C9.4787532 16.42439582 9.24714242 17.87705859 7.6875 20.625 C3.43044232 23.29803622 -1.09874779 22.78706569 -6 22.3125 C-6.66 21.9825 -7.32 21.6525 -8 21.3125 C-8 19.6625 -8 18.0125 -8 16.3125 C-4.7 16.6425 -1.4 16.9725 2 17.3125 C2 16.3225 2 15.3325 2 14.3125 C0.63875 14.1578125 0.63875 14.1578125 -0.75 14 C-4.1329807 13.28436947 -5.74036249 12.91977405 -8 10.3125 C-8.74478276 4.35423794 -8.74478276 4.35423794 -6.78515625 1.61328125 C-4.41852097 -0.11120354 -2.90397754 -0.05617814 0 0 Z " fill="#C23435" transform="translate(481,182.6875)"/>
<path d="M0 0 C2 2 2 2 2 6 C0.72125 5.95875 -0.5575 5.9175 -1.875 5.875 C-4.01871492 5.75787127 -4.01871492 5.75787127 -6 6 C-8.31563087 7.88500271 -8.31563087 7.88500271 -8.25 11 C-8.31563087 14.11499729 -8.31563087 14.11499729 -6 16 C-3.31160615 16.26991906 -0.70858064 16.08737357 2 16 C2.33 17.32 2.66 18.64 3 20 C-1.01858595 22.6790573 -4.27641721 22.69610694 -9 22 C-11.87029869 20.20606332 -13.49131638 19.01736724 -15 16 C-16.13934705 7.04386685 -16.13934705 7.04386685 -13.9765625 3.1640625 C-10.02614274 -0.61175308 -5.13906258 -0.97642189 0 0 Z " fill="#B5282A" transform="translate(539,183)"/>
<path d="M0 0 C0.66 0.33 1.32 0.66 2 1 C1.01 2.485 1.01 2.485 0 4 C-0.02749478 6.06910593 -0.02749478 6.06910593 0.375 8.1875 C0.58125 9.445625 0.7875 10.70375 1 12 C1.66 12 2.32 12 3 12 C3 10.02 3 8.04 3 6 C3.33 6 3.66 6 4 6 C4.66 8.64 5.32 11.28 6 14 C7.99954746 14.04254356 10.00041636 14.04080783 12 14 C13.73605513 12.26394487 13.65611982 9.79450504 14.0625 7.4375 C14.23910156 6.42558594 14.41570313 5.41367188 14.59765625 4.37109375 C14.73042969 3.58863281 14.86320313 2.80617187 15 2 C16.32 2.66 17.64 3.32 19 4 C19.62518714 12.94364932 19.62518714 12.94364932 17.1875 17.0625 C13.80516897 20.05827891 10.53953347 20.43586593 6.07421875 20.3203125 C3.26310493 19.88620453 1.1385319 18.85035879 -0.9375 16.8984375 C-3.26650175 12.73705937 -2.6788538 7.58226317 -2 3 C-1.34 2.01 -0.68 1.02 0 0 Z " fill="#AD2829" transform="translate(547,185)"/>
<path d="M0 0 C0 34.65 0 69.3 0 105 C-0.33 105 -0.66 105 -1 105 C-1 70.68 -1 36.36 -1 1 C-5.60608929 2.22726546 -5.60608929 2.22726546 -10 4 C-12.55807762 3.91089842 -15.0762601 3.76705754 -17.625 3.5625 C-18.33140625 3.51029297 -19.0378125 3.45808594 -19.765625 3.40429688 C-21.51079987 3.27458793 -23.25545725 3.13795046 -25 3 C-25 2.67 -25 2.34 -25 2 C-22.89751231 1.65623559 -20.79287058 1.32564271 -18.6875 1 C-17.51574219 0.814375 -16.34398437 0.62875 -15.13671875 0.4375 C-10.1170338 -0.09338264 -5.04768 0 0 0 Z " fill="#B02523" transform="translate(166,50)"/>
<path d="M0 0 C1.65 0 3.3 0 5 0 C7 2 7 2 7.22705078 3.97119141 C7.21657715 4.75671387 7.20610352 5.54223633 7.1953125 6.3515625 C7.18886719 7.20234375 7.18242187 8.053125 7.17578125 8.9296875 C7.15902344 9.81914062 7.14226562 10.70859375 7.125 11.625 C7.11597656 12.5221875 7.10695313 13.419375 7.09765625 14.34375 C7.0740497 16.56276586 7.0411231 18.78125077 7 21 C4.69 21 2.38 21 0 21 C0 14.07 0 7.14 0 0 Z " fill="#B73133" transform="translate(412,183)"/>
<path d="M0 0 C0.33 0 0.66 0 1 0 C1 21.12 1 42.24 1 64 C-3.29 64 -7.58 64 -12 64 C-14.09020153 60.86469771 -14.2474595 60.1816823 -14.22705078 56.62036133 C-14.22689972 55.73967484 -14.22674866 54.85898834 -14.22659302 53.95161438 C-14.21627045 53.00465195 -14.20594788 52.05768951 -14.1953125 51.08203125 C-14.1924826 50.10965012 -14.18965271 49.13726898 -14.18673706 48.13542175 C-14.17553599 45.02765634 -14.15043148 41.92017841 -14.125 38.8125 C-14.11497011 36.70638437 -14.10584427 34.60026422 -14.09765625 32.49414062 C-14.07559688 27.3293162 -14.04106746 22.16470685 -14 17 C-13.67 17 -13.34 17 -13 17 C-12.98018066 18.29212402 -12.96036133 19.58424805 -12.93994141 20.91552734 C-12.86401632 25.69779345 -12.77527922 30.47975005 -12.68261719 35.26171875 C-12.64427315 37.33359681 -12.60942995 39.40554269 -12.578125 41.47753906 C-12.53259191 44.45141887 -12.47457882 47.42482962 -12.4140625 50.3984375 C-12.40251129 51.32868744 -12.39096008 52.25893738 -12.37905884 53.21737671 C-12.35918915 54.07811798 -12.33931946 54.93885925 -12.31884766 55.82568359 C-12.30552399 56.58513275 -12.29220032 57.34458191 -12.2784729 58.12704468 C-12.15382948 60.2431226 -12.15382948 60.2431226 -10 62 C-6.7 62.33 -3.4 62.66 0 63 C0 42.21 0 21.42 0 0 Z " fill="#A52B2B" transform="translate(542,20)"/>
<path d="M0 0 C0.66 0.33 1.32 0.66 2 1 C2 6.61 2 12.22 2 18 C-0.31 18 -2.62 18 -5 18 C-5.33 13.05 -5.66 8.1 -6 3 C-8.31 3 -10.62 3 -13 3 C-13 2.34 -13 1.68 -13 1 C-9.7 1 -6.4 1 -3 1 C-2.67 1.99 -2.34 2.98 -2 4 C-1.34 2.68 -0.68 1.36 0 0 Z " fill="#B92F30" transform="translate(442,186)"/>
<path d="M0 0 C0.99 0.33 1.98 0.66 3 1 C3.8125 4.25 3.8125 4.25 4 8 C2.1875 10.4375 2.1875 10.4375 -1 12 C-5.99527224 12.62738713 -9.7426024 12.83826506 -14 10 C-13.67 8.35 -13.34 6.7 -13 5 C-9.7 5.66 -6.4 6.32 -3 7 C-3 6.01 -3 5.02 -3 4 C-3.99 3.67 -4.98 3.34 -6 3 C-4.7934375 3.0309375 -4.7934375 3.0309375 -3.5625 3.0625 C-1.06645115 3.29633621 -1.06645115 3.29633621 0 2 C0 1.34 0 0.68 0 0 Z " fill="#9A3133" transform="translate(404,193)"/>
<path d="M0 0 C1.32 0.66 2.64 1.32 4 2 C4.33665041 5.02985373 4.20618506 6.63672156 2.6875 9.3125 C-1.56955768 11.98553622 -6.09874779 11.47456569 -11 11 C-11.66 10.67 -12.32 10.34 -13 10 C-13 8.35 -13 6.7 -13 5 C-12.30132812 5.03480469 -11.60265625 5.06960937 -10.8828125 5.10546875 C-9.97273438 5.13253906 -9.06265625 5.15960938 -8.125 5.1875 C-7.22007812 5.22230469 -6.31515625 5.25710937 -5.3828125 5.29296875 C-4.59648437 5.19628906 -3.81015625 5.09960938 -3 5 C-2.34 4.01 -1.68 3.02 -1 2 C-0.67 2 -0.34 2 0 2 C0 1.34 0 0.68 0 0 Z " fill="#AA2C2D" transform="translate(486,194)"/>
<path d="M0 0 C0.86625 0.00386719 1.7325 0.00773438 2.625 0.01171875 C5 0.3125 5 0.3125 8 2.3125 C7.67 3.6325 7.34 4.9525 7 6.3125 C4.03 5.9825 1.06 5.6525 -2 5.3125 C-2.33 6.9625 -2.66 8.6125 -3 10.3125 C-4.65 10.3125 -6.3 10.3125 -8 10.3125 C-8.36661928 3.83555943 -8.36661928 3.83555943 -6.80078125 1.6015625 C-4.42257008 -0.10084463 -2.90180795 -0.05613617 0 0 Z " fill="#CA2F31" transform="translate(502,182.6875)"/>
<path d="M0 0 C3 1.5625 3 1.5625 5 4 C5.8125 7.75 5.8125 7.75 6 11 C1.56923077 13.09230769 1.56923077 13.09230769 -1.3125 12.625 C-1.869375 12.41875 -2.42625 12.2125 -3 12 C-0.35261084 10.5393715 0.89448334 10 4 10 C4 8.35 4 6.7 4 5 C3.34 5 2.68 5 2 5 C1.67 4.34 1.34 3.68 1 3 C-1.97805699 2.14222294 -4.9073369 1.84265398 -8 2 C-10.46172153 3.792191 -10.46172153 3.792191 -12 6 C-12.66 6 -13.32 6 -14 6 C-11.15871707 -0.55680675 -6.50007354 -0.90088738 0 0 Z M-6 4 C-3.30917128 4.17635452 -0.67148554 4.61835921 2 5 C1.01 5.495 1.01 5.495 0 6 C0 6.99 0 7.98 0 9 C-2.97 9 -5.94 9 -9 9 C-7 5 -7 5 -6 4 Z " fill="#CA4342" transform="translate(463,183)"/>
<path d="M0 0 C0.99 0.99 1.98 1.98 3 3 C3.99 2.67 4.98 2.34 6 2 C6 7.28 6 12.56 6 18 C4.02 18 2.04 18 0 18 C0 12.06 0 6.12 0 0 Z " fill="#A92529" transform="translate(571,186)"/>
<path d="M0 0 C0.99 0.66 1.98 1.32 3 2 C3.4375 5.4375 3.4375 5.4375 3 9 C1 10.9375 1 10.9375 -1 12 C-1.66 11.34 -2.32 10.68 -3 10 C-5.68839385 9.73008094 -8.29141936 9.91262643 -11 10 C-11 7.69 -11 5.38 -11 3 C-5.375 2.75 -5.375 2.75 -2 5 C0.18490007 2.32357511 0.18490007 2.32357511 0 0 Z " fill="#CE3132" transform="translate(357,179)"/>
<path d="M0 0 C1.0725 -0.01417969 2.145 -0.02835938 3.25 -0.04296875 C6 0.1875 6 0.1875 8 2.1875 C3.05 2.1875 -1.9 2.1875 -7 2.1875 C-7 9.7775 -7 17.3675 -7 25.1875 C-1.06 25.1875 4.88 25.1875 11 25.1875 C10.67 25.8475 10.34 26.5075 10 27.1875 C6.62231526 28.31339491 3.99187928 28.32044275 0.4375 28.3125 C-0.71878906 28.31507813 -1.87507813 28.31765625 -3.06640625 28.3203125 C-6 28.1875 -6 28.1875 -8 27.1875 C-8 18.6075 -8 10.0275 -8 1.1875 C-5.27457733 -0.17521133 -3.03912726 0.01826399 0 0 Z " fill="#C04041" transform="translate(348,176.8125)"/>
<path d="M0 0 C0.66 0 1.32 0 2 0 C2.14695312 0.56847656 2.29390625 1.13695312 2.4453125 1.72265625 C4.13131579 7.52677103 6.39736613 11.97269536 11 16 C11.99 16.33 12.98 16.66 14 17 C14 17.66 14 18.32 14 19 C16.68693722 19.33851178 19.37440289 19.670936 22.0625 20 C22.81466797 20.09539062 23.56683594 20.19078125 24.34179688 20.2890625 C31.72888117 21.18446666 38.64277074 21.03259358 46 20 C38.67720194 24.88186538 28.48974164 23.76987281 20 23 C12.18946162 21.08244267 6.30575426 15.68468348 2 9 C0.87898084 5.91252638 0.41730947 3.28631209 0 0 Z " fill="#A03434" transform="translate(471,148)"/>
<path d="M0 0 C0 5.28 0 10.56 0 16 C-1.98 16 -3.96 16 -6 16 C-6 11.38 -6 6.76 -6 2 C-2 0 -2 0 0 0 Z " fill="#BF1E22" transform="translate(602,188)"/>
<path d="M0 0 C0.33 0.99 0.66 1.98 1 3 C-0.36328125 4.83203125 -0.36328125 4.83203125 -2.3125 6.8125 C-5.80838647 10.36511485 -6.26610281 11.79830843 -8 17 C5.86 17 19.72 17 34 17 C33.505 13.535 33.505 13.535 33 10 C35 13 35 13 35 18 C20.48 18 5.96 18 -9 18 C-9 10.42257361 -6.71426622 6.93434186 -1.6875 1.5 C-1.130625 1.005 -0.57375 0.51 0 0 Z " fill="#A53537" transform="translate(156,25)"/>
<path d="M0 0 C1.828125 0.37109375 1.828125 0.37109375 4 1 C5.91561254 1.06688591 7.83335592 1.08531719 9.75 1.0625 C10.73484375 1.05347656 11.7196875 1.04445312 12.734375 1.03515625 C13.48203125 1.02355469 14.2296875 1.01195312 15 1 C14.625 3.4375 14.625 3.4375 14 6 C10.29012673 7.85493664 6.03860349 7.59596347 2 7 C-0.29327525 5.55214852 -1.34437719 4.20749707 -3 2 C-2.01 1.34 -1.02 0.68 0 0 Z " fill="#AA2224" transform="translate(453,198)"/>
<path d="M0 0 C4.29 0 8.58 0 13 0 C13.09776087 10.38437692 13.1555538 20.66192051 12 31 C11.67 31 11.34 31 11 31 C10.67 22.09 10.34 13.18 10 4 C8.35 4 6.7 4 5 4 C4.34 3.34 3.68 2.68 3 2 C3 2.66 3 3.32 3 4 C2.01 4 1.02 4 0 4 C0 2.68 0 1.36 0 0 Z " fill="#DD1E25" transform="translate(529,18)"/>
<path d="M0 0 C3.125 0.375 3.125 0.375 6 1 C6.05399736 2.45792884 6.09279177 3.91642712 6.125 5.375 C6.14820313 6.18710938 6.17140625 6.99921875 6.1953125 7.8359375 C6 10 6 10 4 12 C1.4375 11.75 1.4375 11.75 -1 11 C-2.50662097 7.98675805 -2.17770373 5.31713623 -2 2 C-1.34 1.34 -0.68 0.68 0 0 Z " fill="#FCF7F5" transform="translate(553,188)"/>
<path d="M0 0 C2.76982536 1.28662855 4.55483372 2.47219891 6.9375 4.5 C14.3405127 10.54327568 24.72374069 10.85144409 34 10 C37.84087358 9.0414343 41.13105537 7.65757972 44.3125 5.25 C44.869375 4.8375 45.42625 4.425 46 4 C46.99 4.33 47.98 4.66 49 5 C47.77422398 5.79690649 46.54418995 6.58726484 45.3125 7.375 C44.62800781 7.81585938 43.94351563 8.25671875 43.23828125 8.7109375 C34.46829262 13.76171629 22.35872573 13.67374214 12.67578125 11.125 C7.12252192 8.53971541 3.6287457 4.8701587 0 0 Z " fill="#9E3435" transform="translate(403,159)"/>
<path d="M0 0 C2.66666667 1.33333333 5.33333333 2.66666667 8 4 C8 4.66 8 5.32 8 6 C15.18370509 6.63956675 22.26502254 7.05334284 29.4765625 6.96875 C33.04705548 7.01296663 36.47172544 7.46743026 40 8 C35.60116435 10.9325571 31.55183541 10.36821516 26.375 10.375 C24.93447266 10.41173828 24.93447266 10.41173828 23.46484375 10.44921875 C13.8747817 10.48825564 6.93085557 7.57542708 0 1 C0 0.67 0 0.34 0 0 Z " fill="#9E2F31" transform="translate(549,161)"/>
<path d="M0 0 C0.66 0.33 1.32 0.66 2 1 C1.01 2.485 1.01 2.485 0 4 C-0.02749478 6.06910593 -0.02749478 6.06910593 0.375 8.1875 C0.58125 9.445625 0.7875 10.70375 1 12 C1.66 12 2.32 12 3 12 C3 10.02 3 8.04 3 6 C3.33 6 3.66 6 4 6 C4.2226746 7.43534841 4.42761906 8.87345525 4.625 10.3125 C4.74101563 11.11300781 4.85703125 11.91351563 4.9765625 12.73828125 C5 15 5 15 3 18 C6.63 18 10.26 18 14 18 C12 20 12 20 8.25 20.4375 C4.57667696 20.29673397 1.83483828 19.50503816 -0.9375 16.8984375 C-3.26650175 12.73705937 -2.6788538 7.58226317 -2 3 C-1.34 2.01 -0.68 1.02 0 0 Z " fill="#A82F30" transform="translate(547,185)"/>
<path d="M0 0 C2.475 0.99 2.475 0.99 5 2 C5 2.66 5 3.32 5 4 C9.67584655 5.18781586 14.21140179 5.1483211 19 5.125 C20.19109375 5.13080078 20.19109375 5.13080078 21.40625 5.13671875 C25.4029478 5.13005759 29.09947535 4.99085908 33 4 C33 3.34 33 2.68 33 2 C34.32 1.67 35.64 1.34 37 1 C37 1.66 37 2.32 37 3 C28.73156008 8.5652961 20.62138749 9.11829739 11 8 C6.80840963 6.69581486 3.64133555 4.42755704 0 2 C0 1.34 0 0.68 0 0 Z " fill="#9F3637" transform="translate(432,77)"/>
<path d="M0 0 C0.99 1.32 1.98 2.64 3 4 C3.99 2.68 4.98 1.36 6 0 C6 4.62 6 9.24 6 14 C4.02 14 2.04 14 0 14 C0 9.38 0 4.76 0 0 Z " fill="#B91F22" transform="translate(583,190)"/>
<path d="M0 0 C1.32 0 2.64 0 4 0 C4.33 4.95 4.66 9.9 5 15 C4.01 15.66 3.02 16.32 2 17 C1.34 16.67 0.68 16.34 0 16 C0 10.72 0 5.44 0 0 Z " fill="#C81D23" transform="translate(367,185)"/>
<path d="M0 0 C0.86625 -0.00515625 1.7325 -0.0103125 2.625 -0.015625 C5 0.25 5 0.25 8 2.25 C7.67 3.57 7.34 4.89 7 6.25 C4.03 5.92 1.06 5.59 -2 5.25 C-2.33 6.24 -2.66 7.23 -3 8.25 C-3 6.93 -3 5.61 -3 4.25 C0.465 3.755 0.465 3.755 4 3.25 C4 2.92 4 2.59 4 2.25 C-1.08303686 2.13679144 -1.08303686 2.13679144 -6 3.25 C-5.76586026 8.28478441 -5.76586026 8.28478441 -2.9375 12.1875 C-2.298125 12.538125 -1.65875 12.88875 -1 13.25 C-3.60623142 12.89780657 -5.60789115 12.48526531 -7.875 11.125 C-9 9.25 -9 9.25 -8.875 5.6875 C-7.52875719 0.39868896 -4.99733199 -0.02974602 0 0 Z " fill="#C53D3B" transform="translate(399,182.75)"/>
<path d="M0 0 C2 2 2 2 2 10 C-5.59 10 -13.18 10 -21 10 C-21 9.67 -21 9.34 -21 9 C-14.11997829 6.37903935 -7.27823961 6.81829638 0 7 C0 4.69 0 2.38 0 0 Z " fill="#5D4E93" transform="translate(231,193)"/>
<path d="M0 0 C0 5.28 0 10.56 0 16 C-0.33 16 -0.66 16 -1 16 C-1 11.05 -1 6.1 -1 1 C-5.60608929 2.22726546 -5.60608929 2.22726546 -10 4 C-12.55807762 3.91089842 -15.0762601 3.76705754 -17.625 3.5625 C-18.33140625 3.51029297 -19.0378125 3.45808594 -19.765625 3.40429688 C-21.51079987 3.27458793 -23.25545725 3.13795046 -25 3 C-25 2.67 -25 2.34 -25 2 C-16.5733222 0.62220743 -8.54118727 -0.2308429 0 0 Z " fill="#A33736" transform="translate(166,50)"/>
<path d="M0 0 C0.89847656 0.00257813 1.79695313 0.00515625 2.72265625 0.0078125 C3.61855469 0.00523437 4.51445312 0.00265625 5.4375 0 C7.78515625 0.1328125 7.78515625 0.1328125 9.78515625 1.1328125 C9.78515625 2.1228125 9.78515625 3.1128125 9.78515625 4.1328125 C6.15515625 4.1328125 2.52515625 4.1328125 -1.21484375 4.1328125 C-1.54484375 5.7828125 -1.87484375 7.4328125 -2.21484375 9.1328125 C-2.54484375 9.1328125 -2.87484375 9.1328125 -3.21484375 9.1328125 C-3.3125 2.98046875 -3.3125 2.98046875 -3.21484375 1.1328125 C-2.21484375 0.1328125 -2.21484375 0.1328125 0 0 Z " fill="#D42B2E" transform="translate(478.21484375,182.8671875)"/>
<path d="M0 0 C0.66 0 1.32 0 2 0 C2.30040597 11.88272513 1.90332569 20.09293717 -5 30 C-6 27 -6 27 -5.0625 24.8125 C-4.5365625 23.9153125 -4.5365625 23.9153125 -4 23 C-3.34 23 -2.68 23 -2 23 C-2.020625 22.195625 -2.04125 21.39125 -2.0625 20.5625 C-2 18 -2 18 -1 17 C-0.76298761 14.14122091 -0.57780818 11.30116703 -0.4375 8.4375 C-0.37272461 7.22803711 -0.37272461 7.22803711 -0.30664062 5.99414062 C-0.20024738 3.99631195 -0.09959112 1.9981793 0 0 Z " fill="#B33636" transform="translate(459,132)"/>
<path d="M0 0 C1 2 1 2 0.58203125 3.875 C0.20111328 4.926875 0.20111328 4.926875 -0.1875 6 C-0.42855469 6.70125 -0.66960937 7.4025 -0.91796875 8.125 C-2.33977697 10.58878319 -3.30415431 11.09684631 -6 12 C-17.48989076 13.30100074 -17.48989076 13.30100074 -22.02734375 10.94921875 C-23.375 9.625 -23.375 9.625 -25 7 C-25 6.34 -25 5.68 -25 5 C-24.01 5.33 -23.02 5.66 -22 6 C-22 6.99 -22 7.98 -22 9 C-13.63197775 10.12148476 -13.63197775 10.12148476 -5.375 9 C-2.16785995 6.29925049 -1.34086124 3.94809143 0 0 Z " fill="#A33D3D" transform="translate(411,72)"/>
<path d="M0 0 C1.65 0 3.3 0 5 0 C5.56359649 9.58114035 5.56359649 9.58114035 2 14 C1.67 14 1.34 14 1 14 C0.04738513 9.23692563 -0.08333357 4.8333472 0 0 Z " fill="#D11E23" transform="translate(380,184)"/>
<path d="M0 0 C1.875 0.3125 1.875 0.3125 4 1 C4.66 1.99 5.32 2.98 6 4 C5.525625 4.350625 5.05125 4.70125 4.5625 5.0625 C2.6750372 7.05390845 2.6750372 7.05390845 2.5625 10.5625 C2.376875 11.696875 2.19125 12.83125 2 14 C-0.0625 15.4375 -0.0625 15.4375 -2 16 C-1.67 15.34 -1.34 14.68 -1 14 C-0.77532169 12.46331135 -0.59203195 10.92031946 -0.4375 9.375 C-0.35371094 8.55773437 -0.26992188 7.74046875 -0.18359375 6.8984375 C-0.12300781 6.27195313 -0.06242188 5.64546875 0 5 C-4.14093698 4.79029441 -4.14093698 4.79029441 -8 6 C-8 5.01 -8 4.02 -8 3 C-3.545 2.505 -3.545 2.505 1 2 C0.67 1.34 0.34 0.68 0 0 Z " fill="#C93838" transform="translate(559,184)"/>
<path d="M0 0 C1.4146624 2.82932481 0.64051213 4.40365457 -0.125 7.4375 C-0.35445313 8.40558594 -0.58390625 9.37367187 -0.8203125 10.37109375 C-2.33925756 13.7560276 -3.60039681 14.57083721 -7 16 C-10.2265625 16.3984375 -10.2265625 16.3984375 -13.625 16.375 C-14.75164062 16.38273437 -15.87828125 16.39046875 -17.0390625 16.3984375 C-20 16 -20 16 -21.8984375 14.4765625 C-22.26195312 13.98929688 -22.62546875 13.50203125 -23 13 C-21.33388095 12.957279 -19.66617115 12.95936168 -18 13 C-17.67 13.33 -17.34 13.66 -17 14 C-14.98035801 14.07244053 -12.95832876 14.08377188 -10.9375 14.0625 C-9.83277344 14.05347656 -8.72804688 14.04445313 -7.58984375 14.03515625 C-6.73519531 14.02355469 -5.88054687 14.01195313 -5 14 C-4.80664062 13.24074219 -4.61328125 12.48148438 -4.4140625 11.69921875 C-4.15367187 10.70535156 -3.89328125 9.71148437 -3.625 8.6875 C-3.24214844 7.20830078 -3.24214844 7.20830078 -2.8515625 5.69921875 C-2 3 -2 3 0 0 Z " fill="#993031" transform="translate(376,68)"/>
<path d="M0 0 C0.33 0 0.66 0 1 0 C1.33 2.97 1.66 5.94 2 9 C-5.26 9 -12.52 9 -20 9 C-20 8.34 -20 7.68 -20 7 C-13.73 6.67 -7.46 6.34 -1 6 C-0.67 4.02 -0.34 2.04 0 0 Z " fill="#53498E" transform="translate(317,194)"/>
<path d="M0 0 C2.33294775 -0.04241723 4.66702567 -0.04092937 7 0 C8 1 8 1 8.0625 3.5625 C8.041875 4.366875 8.02125 5.17125 8 6 C5.29120665 7.35439668 2.99066732 7.06501451 0 7 C0 4.69 0 2.38 0 0 Z " fill="#FACECA" transform="translate(346,193)"/>
<path d="M0 0 C-1.66289062 0.92232422 -1.66289062 0.92232422 -3.359375 1.86328125 C-4.82300189 2.67953471 -6.28653884 3.49594944 -7.75 4.3125 C-8.47960937 4.71662109 -9.20921875 5.12074219 -9.9609375 5.53710938 C-12.89516888 7.17761146 -15.69779414 8.7733456 -18.390625 10.79296875 C-20 12 -20 12 -22 12 C-22 10.68 -22 9.36 -22 8 C-18.90352475 6.46312518 -15.79674718 4.94834718 -12.6875 3.4375 C-11.80642578 2.99986328 -10.92535156 2.56222656 -10.01757812 2.11132812 C-9.17001953 1.70205078 -8.32246094 1.29277344 -7.44921875 0.87109375 C-6.66893311 0.48880615 -5.88864746 0.10651855 -5.0847168 -0.28735352 C-3 -1 -3 -1 0 0 Z " fill="#FCE7E3" transform="translate(136,65)"/>
<path d="M0 0 C0 3.50722636 -1.20347464 5.26148088 -3.02734375 8.18359375 C-7.0223368 15.64412295 -5.23737322 25.95707409 -4 34 C-6.67193421 31.42020145 -7.24278666 29.31756363 -7.43359375 25.734375 C-7.45081688 24.07300543 -7.45157965 22.41139919 -7.4375 20.75 C-7.45748047 19.92886719 -7.47746094 19.10773437 -7.49804688 18.26171875 C-7.49281037 11.65324645 -5.99915063 6.16171471 -1.36499023 1.27636719 C-0.91454346 0.85516602 -0.46409668 0.43396484 0 0 Z " fill="#AC3032" transform="translate(433,39)"/>
<path d="M0 0 C0 0.66 0 1.32 0 2 C-1.79244141 2.36351562 -1.79244141 2.36351562 -3.62109375 2.734375 C-13.77519015 4.72803579 -13.77519015 4.72803579 -23.4375 8.3125 C-27 10 -27 10 -30 9 C-26.73725386 6.82483591 -23.50259835 5.69692288 -19.8125 4.5 C-19.13920654 4.27932861 -18.46591309 4.05865723 -17.7722168 3.83129883 C-5.95298097 0 -5.95298097 0 0 0 Z " fill="#A74241" transform="translate(140,53)"/>
<path d="M0 0 C1.65 0 3.3 0 5 0 C3.68 0.33 2.36 0.66 1 1 C1.66 5.29 2.32 9.58 3 14 C4.65554702 10.68890596 5.2793272 9.20672799 5.625 5.75 C5.810625 3.89375 5.810625 3.89375 6 2 C6.33 2 6.66 2 7 2 C7 7.61 7 13.22 7 19 C6.34 17.68 5.68 16.36 5 15 C3.02 15.99 3.02 15.99 1 17 C0.00749455 11.29309366 -0.10477512 5.78591511 0 0 Z " fill="#C24243" transform="translate(379,183)"/>
<path d="M0 0 C3.53571429 0.53571429 3.53571429 0.53571429 5 2 C5.125 4.5 5.125 4.5 5 7 C4 8 4 8 1.5 8.125 C-1 8 -1 8 -2 7 C-2.1875 4.5625 -2.1875 4.5625 -2 2 C-1.34 1.34 -0.68 0.68 0 0 Z " fill="#B72F30" transform="translate(516,197)"/>
<path d="M0 0 C0.80824219 0.11085937 1.61648438 0.22171875 2.44921875 0.3359375 C3.37154297 0.47902344 3.37154297 0.47902344 4.3125 0.625 C4.6425 1.615 4.9725 2.605 5.3125 3.625 C3.5490625 3.5321875 3.5490625 3.5321875 1.75 3.4375 C-2.72710301 3.41355827 -5.7116888 4.6370944 -9.6875 6.625 C-7.81276965 1.14501899 -5.88925257 -0.85351487 0 0 Z " fill="#DC1E24" transform="translate(459.6875,184.375)"/>
<path d="M0 0 C0.33 0 0.66 0 1 0 C1.16726689 4.39635047 1.32786093 8.79287761 1.48217773 13.18969727 C1.53566434 14.68650938 1.5909987 16.18325663 1.64819336 17.67993164 C1.72991956 19.82684332 1.8050746 21.97389793 1.87890625 24.12109375 C1.9260376 25.4145874 1.97316895 26.70808105 2.02172852 28.04077148 C2 31 2 31 1 32 C-1.01964199 32.07244053 -3.04167124 32.08377188 -5.0625 32.0625 C-6.16722656 32.05347656 -7.27195312 32.04445312 -8.41015625 32.03515625 C-9.69212891 32.01775391 -9.69212891 32.01775391 -11 32 C-11 31.67 -11 31.34 -11 31 C-7.37 30.67 -3.74 30.34 0 30 C0 20.1 0 10.2 0 0 Z " fill="#C0645F" transform="translate(583,125)"/>
<path d="M0 0 C3.63 0 7.26 0 11 0 C11 0.66 11 1.32 11 2 C9.329375 2.12375 9.329375 2.12375 7.625 2.25 C4.0012578 2.56089266 4.0012578 2.56089266 2.8125 4.75 C1.95064258 7.13668208 1.59772919 9.22573585 1.375 11.75 C1.30023437 12.54921875 1.22546875 13.3484375 1.1484375 14.171875 C1.09945312 14.77515625 1.05046875 15.3784375 1 16 C0.67 16 0.34 16 0 16 C0 10.72 0 5.44 0 0 Z " fill="#E71A23" transform="translate(588,18)"/>
<path d="M0 0 C0 0.99 0 1.98 0 3 C-2.31 3.33 -4.62 3.66 -7 4 C-7.66 5.65 -8.32 7.3 -9 9 C-11 7 -11 7 -11.125 4.375 C-11.08375 3.59125 -11.0425 2.8075 -11 2 C-7.36576791 -0.32590854 -4.22911669 -0.16265833 0 0 Z " fill="#DC1C22" transform="translate(403,184)"/>
<path d="M0 0 C5.28 0 10.56 0 16 0 C16.33 0.99 16.66 1.98 17 3 C15.5625 5.1875 15.5625 5.1875 14 7 C14 6.34 14 5.68 14 5 C13.01 4.67 12.02 4.34 11 4 C11 3.34 11 2.68 11 2 C7.37 2 3.74 2 0 2 C0 1.34 0 0.68 0 0 Z " fill="#E81A20" transform="translate(341,179)"/>
<path d="M0 0 C0.33 0 0.66 0 1 0 C2.04054143 14.68319577 2.04054143 14.68319577 -0.20703125 19.6875 C-2.80537401 22.60835369 -4.80444366 23.82300908 -8.69140625 24.3984375 C-11.17594112 24.43377939 -13.53697758 24.31221411 -16 24 C-16 23.67 -16 23.34 -16 23 C-15.09507812 22.96132812 -15.09507812 22.96132812 -14.171875 22.921875 C-9.03742755 22.58834954 -9.03742755 22.58834954 -4.5625 20.25 C-1.42557737 15.73283141 -0.70485248 11.63006591 -0.375 6.1875 C-0.30023437 5.02605469 -0.22546875 3.86460937 -0.1484375 2.66796875 C-0.09945312 1.78753906 -0.05046875 0.90710938 0 0 Z " fill="#B83F3E" transform="translate(514,133)"/>
<path d="M0 0 C-2.80237535 2.35399529 -5.55028705 3.6228416 -8.9296875 4.96875 C-12.50734818 6.75083004 -15.59778972 9.25172755 -18.765625 11.671875 C-19.50296875 12.11015625 -20.2403125 12.5484375 -21 13 C-21.99 12.67 -22.98 12.34 -24 12 C-21.62788344 10.39142732 -19.25249943 8.78808248 -16.875 7.1875 C-16.20984375 6.73568359 -15.5446875 6.28386719 -14.859375 5.81835938 C-4.14043445 -1.38014482 -4.14043445 -1.38014482 0 0 Z " fill="#A63433" transform="translate(137,66)"/>
<path d="M0 0 C2.875 -0.125 2.875 -0.125 6 0 C6.66 0.66 7.32 1.32 8 2 C7.625 4.125 7.625 4.125 7 6 C4.69 6 2.38 6 0 6 C0 4.02 0 2.04 0 0 Z " fill="#FCE1DC" transform="translate(346,182)"/>
<path d="M0 0 C3.3 0.33 6.6 0.66 10 1 C10 1.33 10 1.66 10 2 C7.69 2 5.38 2 3 2 C3 2.66 3 3.32 3 4 C6.63 4 10.26 4 14 4 C13.67 4.66 13.34 5.32 13 6 C11.20866022 6.05391993 9.41686101 6.09275571 7.625 6.125 C6.62726563 6.14820313 5.62953125 6.17140625 4.6015625 6.1953125 C2 6 2 6 0 4 C0 2.68 0 1.36 0 0 Z " fill="#9C3637" transform="translate(494,199)"/>
<path d="M0 0 C1.2065625 0.0309375 1.2065625 0.0309375 2.4375 0.0625 C3.0625 2.4375 3.0625 2.4375 3.4375 5.0625 C2.7775 5.7225 2.1175 6.3825 1.4375 7.0625 C-1.1875 6.6875 -1.1875 6.6875 -3.5625 6.0625 C-3.605221 4.39638095 -3.60313832 2.72867115 -3.5625 1.0625 C-2.5625 0.0625 -2.5625 0.0625 0 0 Z " fill="#D23536" transform="translate(415.5625,173.9375)"/>
<path d="M0 0 C0.66 0.33 1.32 0.66 2 1 C2 2.98 2 4.96 2 7 C-1.96 7 -5.92 7 -10 7 C-10 6.34 -10 5.68 -10 5 C-7.69 5 -5.38 5 -3 5 C-2.690625 4.360625 -2.38125 3.72125 -2.0625 3.0625 C-1 1 -1 1 0 0 Z " fill="#B01E21" transform="translate(507,196)"/>
<path d="M0 0 C3.96 0 7.92 0 12 0 C12 5.28 12 10.56 12 16 C11.67 16 11.34 16 11 16 C10.67 11.71 10.34 7.42 10 3 C8.35 3 6.7 3 5 3 C4.34 2.34 3.68 1.68 3 1 C3 1.66 3 2.32 3 3 C2.01 3 1.02 3 0 3 C0 2.01 0 1.02 0 0 Z " fill="#EB1822" transform="translate(529,19)"/>
<path d="M0 0 C0.99 0.33 1.98 0.66 3 1 C3 4.3 3 7.6 3 11 C2.34 11 1.68 11 1 11 C0.67 11.99 0.34 12.98 0 14 C-1.54799337 9.35601989 -1.49594333 4.67482292 0 0 Z " fill="#C61D22" transform="translate(562,187)"/>
<path d="M0 0 C0.87785156 0.09023437 1.75570313 0.18046875 2.66015625 0.2734375 C4.9375 0.625 4.9375 0.625 6.9375 1.625 C6.5625 3.5625 6.5625 3.5625 5.9375 5.625 C4.9475 6.12 4.9475 6.12 3.9375 6.625 C3.9375 5.305 3.9375 3.985 3.9375 2.625 C3.23882812 2.64820313 2.54015625 2.67140625 1.8203125 2.6953125 C0.91023438 2.71335938 0.00015625 2.73140625 -0.9375 2.75 C-1.84242188 2.77320313 -2.74734375 2.79640625 -3.6796875 2.8203125 C-6.0625 2.625 -6.0625 2.625 -8.0625 0.625 C-4.90785201 -0.42654933 -3.25512346 -0.35475572 0 0 Z " fill="#DF1B22" transform="translate(435.0625,184.375)"/>
<path d="M0 0 C7.26 0 14.52 0 22 0 C21.67 0.99 21.34 1.98 21 3 C22.98 3 24.96 3 27 3 C27 3.33 27 3.66 27 4 C23.37 4 19.74 4 16 4 C16 3.34 16 2.68 16 2 C14.64455078 2.03480469 14.64455078 2.03480469 13.26171875 2.0703125 C12.08222656 2.08835937 10.90273438 2.10640625 9.6875 2.125 C7.92986328 2.15980469 7.92986328 2.15980469 6.13671875 2.1953125 C3 2 3 2 0 0 Z " fill="#FEF0EE" transform="translate(568,84)"/>
<path d="M0 0 C1.32 0 2.64 0 4 0 C3.625 2.4375 3.625 2.4375 3 5 C0.54617866 6.22691067 -1.19984103 6.20175931 -3.9375 6.25 C-5.25041016 6.28867188 -5.25041016 6.28867188 -6.58984375 6.328125 C-9 6 -9 6 -12 3 C-5.07 3.495 -5.07 3.495 2 4 C2 3.34 2 2.68 2 2 C1.34 2 0.68 2 0 2 C0 1.34 0 0.68 0 0 Z " fill="#A13C3B" transform="translate(464,199)"/>
<path d="M0 0 C2.97 0.495 2.97 0.495 6 1 C4.02 1.99 4.02 1.99 2 3 C1.67 9.27 1.34 15.54 1 22 C2.98 22.33 4.96 22.66 7 23 C6.67 23.66 6.34 24.32 6 25 C4.02 24.34 2.04 23.68 0 23 C0 15.41 0 7.82 0 0 Z " fill="#A67AA8" transform="translate(175,140)"/>
<path d="M0 0 C1.41569064 -0.08167446 2.83276805 -0.13949698 4.25 -0.1875 C5.43335938 -0.23970703 5.43335938 -0.23970703 6.640625 -0.29296875 C9.69564805 0.08638014 10.93214531 0.70656116 13 3 C13.390625 6.13671875 13.390625 6.13671875 13.25 9.6875 C13.21390625 10.86699219 13.1778125 12.04648437 13.140625 13.26171875 C13.07101562 14.61716797 13.07101562 14.61716797 13 16 C11.45446207 13.22052453 10.74060014 11.03889178 10.5 7.875 C10.40013282 3.99293052 10.40013282 3.99293052 8 2 C5.34462628 1.43479997 2.70855287 1.26211802 0 1 C0 0.67 0 0.34 0 0 Z " fill="#D13334" transform="translate(406,22)"/>
<path d="M0 0 C0.99 0.33 1.98 0.66 3 1 C3.33 3.31 3.66 5.62 4 8 C2.68 8.33 1.36 8.66 0 9 C0 8.34 0 7.68 0 7 C-0.99 6.67 -1.98 6.34 -3 6 C-3 5.34 -3 4.68 -3 4 C-3.99 3.67 -4.98 3.34 -6 3 C-4.7934375 3.0309375 -4.7934375 3.0309375 -3.5625 3.0625 C-1.06645115 3.29633621 -1.06645115 3.29633621 0 2 C0 1.34 0 0.68 0 0 Z " fill="#B82E31" transform="translate(404,193)"/>
<path d="M0 0 C0.33 0 0.66 0 1 0 C1.29557392 5.02475668 1.0282379 7.92352591 -2 12 C-4 14 -4 14 -6.6015625 14.1953125 C-7.59929687 14.17210937 -8.59703125 14.14890625 -9.625 14.125 C-11.12933594 14.09792969 -11.12933594 14.09792969 -12.6640625 14.0703125 C-13.43492187 14.04710937 -14.20578125 14.02390625 -15 14 C-15 13.67 -15 13.34 -15 13 C-14.31292969 12.89042969 -13.62585938 12.78085938 -12.91796875 12.66796875 C-12.01691406 12.50941406 -11.11585938 12.35085937 -10.1875 12.1875 C-9.29417969 12.03667969 -8.40085937 11.88585937 -7.48046875 11.73046875 C-4.73584255 10.92220875 -3.6899353 10.28141266 -2 8 C-1.22186348 5.96658113 -1.22186348 5.96658113 -0.8125 3.8125 C-0.544375 2.554375 -0.27625 1.29625 0 0 Z " fill="#BA4B49" transform="translate(441,143)"/>
<path d="M0 0 C5.94 0 11.88 0 18 0 C17.67 0.66 17.34 1.32 17 2 C13.57767028 3.14077657 10.91326783 3.09815117 7.3125 3.0625 C5.54326172 3.04896484 5.54326172 3.04896484 3.73828125 3.03515625 C2.83464844 3.02355469 1.93101562 3.01195312 1 3 C0.67 2.01 0.34 1.02 0 0 Z " fill="#9F3436" transform="translate(341,202)"/>
<path d="M0 0 C1.43655854 -0.08131463 2.8744483 -0.13933559 4.3125 -0.1875 C5.51326172 -0.23970703 5.51326172 -0.23970703 6.73828125 -0.29296875 C9.47851584 0.06198392 10.29171079 0.89366282 12 3 C8.52674819 4.1577506 5.63932552 4.06866652 2 4 C1.34 2.68 0.68 1.36 0 0 Z " fill="#FAE3E0" transform="translate(455,196)"/>
<path d="M0 0 C0.66 0 1.32 0 2 0 C2 1.65 2 3.3 2 5 C0.68 5.33 -0.64 5.66 -2 6 C-2 6.66 -2 7.32 -2 8 C-4.31 7.67 -6.62 7.34 -9 7 C-9 6.01 -9 5.02 -9 4 C-6.03 4 -3.06 4 0 4 C0 2.68 0 1.36 0 0 Z " fill="#FDE5E1" transform="translate(488,184)"/>
<path d="M0 0 C0.33 0.99 0.66 1.98 1 3 C-0.58203125 5.69921875 -0.58203125 5.69921875 -2.8125 8.6875 C-3.90498047 10.17830078 -3.90498047 10.17830078 -5.01953125 11.69921875 C-5.99986328 12.83810547 -5.99986328 12.83810547 -7 14 C-7.66 14 -8.32 14 -9 14 C-9 14.66 -9 15.32 -9 16 C-9.66 15.67 -10.32 15.34 -11 15 C-9.3553057 12.68668225 -7.70930345 10.37431549 -6.0625 8.0625 C-5.59392578 7.40314453 -5.12535156 6.74378906 -4.64257812 6.06445312 C-1.11328125 1.11328125 -1.11328125 1.11328125 0 0 Z " fill="#B63A39" transform="translate(58,98)"/>
<path d="M0 0 C-1.30936898 2.92090003 -2.75619462 4.75619462 -5 7 C-6.0541518 10.16245541 -6.31275672 12.86948218 -6.5625 16.1875 C-6.64628906 17.27417969 -6.73007812 18.36085937 -6.81640625 19.48046875 C-6.87699219 20.31191406 -6.93757813 21.14335937 -7 22 C-7.33 22 -7.66 22 -8 22 C-8.58861835 7.30634202 -8.58861835 7.30634202 -3.4375 1.125 C-2 0 -2 0 0 0 Z " fill="#FBD2CE" transform="translate(425,124)"/>
<path d="M0 0 C0.33 1.32 0.66 2.64 1 4 C-0.62418745 4.08090971 -2.24951745 4.13914995 -3.875 4.1875 C-4.77992188 4.22230469 -5.68484375 4.25710937 -6.6171875 4.29296875 C-7.79667969 4.14794922 -7.79667969 4.14794922 -9 4 C-9.66 3.01 -10.32 2.02 -11 1 C-7.26513121 0.4254048 -3.78706732 0 0 0 Z " fill="#A72123" transform="translate(405,199)"/>
<path d="M0 0 C0.99 0 1.98 0 3 0 C3 5.28 3 10.56 3 16 C2.67 16 2.34 16 2 16 C1.67 12.04 1.34 8.08 1 4 C0.01 5.32 -0.98 6.64 -2 8 C-2.125 5.125 -2.125 5.125 -2 2 C-1.34 1.34 -0.68 0.68 0 0 Z " fill="#CD3F3F" transform="translate(587,188)"/>
<path d="M0 0 C-2.32392203 1.54928135 -4.26869948 2.63607817 -6.79296875 3.7265625 C-7.50517578 4.0359375 -8.21738281 4.3453125 -8.95117188 4.6640625 C-10.0581543 5.13972656 -10.0581543 5.13972656 -11.1875 5.625 C-11.93708984 5.94984375 -12.68667969 6.2746875 -13.45898438 6.609375 C-15.3048602 7.40886262 -17.15228184 8.20477953 -19 9 C-18 6 -18 6 -15.48828125 4.39453125 C-14.44027344 3.87246094 -13.39226562 3.35039063 -12.3125 2.8125 C-10.75982422 2.01779297 -10.75982422 2.01779297 -9.17578125 1.20703125 C-5.86610863 -0.0508886 -3.50588397 -0.2365289 0 0 Z " fill="#A43332" transform="translate(136,63)"/>
<path d="M0 0 C0.33 0 0.66 0 1 0 C1 5.28 1 10.56 1 16 C-0.98 16 -2.96 16 -5 16 C-5 14.02 -5 12.04 -5 10 C-4.01 11.485 -4.01 11.485 -3 13 C-2.34 13 -1.68 13 -1 13 C-0.67 8.71 -0.34 4.42 0 0 Z " fill="#A12627" transform="translate(601,188)"/>
<path d="M0 0 C2 2 2 2 2 6 C0 5 0 5 -1 2 C-4.28999282 1.58168596 -4.28999282 1.58168596 -8 2 C-10.81331378 4.39583651 -10.81331378 4.39583651 -13 7 C-13.66 7 -14.32 7 -15 7 C-12.08517091 -0.04417031 -7.13481553 -1.06058069 0 0 Z " fill="#C83D3B" transform="translate(539,183)"/>
<path d="M0 0 C-1.52763464 4.08596252 -4.11084191 5.79826179 -7.625 8.25 C-8.62789063 8.95640625 -9.63078125 9.6628125 -10.6640625 10.390625 C-11.43492188 10.92171875 -12.20578125 11.4528125 -13 12 C-13.66 11.67 -14.32 11.34 -15 11 C-12.87996003 9.16064138 -10.75442773 7.32843267 -8.625 5.5 C-8.02171875 4.97535156 -7.4184375 4.45070313 -6.796875 3.91015625 C-2.2265625 0 -2.2265625 0 0 0 Z " fill="#AE3A38" transform="translate(113,79)"/>
<path d="M0 0 C0.66 0 1.32 0 2 0 C2.042721 1.66611905 2.04063832 3.33382885 2 5 C1.67 5.33 1.34 5.66 1 6 C0.80683287 8.02825491 0.61674212 10.05723921 0.4765625 12.08984375 C0 14 0 14 -3 16 C-2.40984815 10.49191603 -1.43336231 5.35121931 0 0 Z " fill="#B63B3A" transform="translate(367,54)"/>
<path d="M0 0 C2.29930415 1.79576261 2.95128633 2.65219489 3.36328125 5.59375 C3.34652344 6.5528125 3.32976562 7.511875 3.3125 8.5 C3.30863281 9.4590625 3.30476563 10.418125 3.30078125 11.40625 C3 14 3 14 1 17 C0.34 16.67 -0.32 16.34 -1 16 C-0.67 15.01 -0.34 14.02 0 13 C0.06937062 10.77181559 0.08457084 8.54165476 0.0625 6.3125 C0.05347656 5.13300781 0.04445313 3.95351563 0.03515625 2.73828125 C0.02355469 1.83464844 0.01195312 0.93101563 0 0 Z " fill="#B83837" transform="translate(460,52)"/>
<path d="M0 0 C0.33 0 0.66 0 1 0 C1.33 3.96 1.66 7.92 2 12 C3.32 11.01 4.64 10.02 6 9 C6 10.65 6 12.3 6 14 C4.02 14 2.04 14 0 14 C0 9.38 0 4.76 0 0 Z " fill="#9A2B2D" transform="translate(583,190)"/>
<path d="M0 0 C0.66 0 1.32 0 2 0 C1.34 3.3 0.68 6.6 0 10 C1.65 10 3.3 10 5 10 C4.67 10.66 4.34 11.32 4 12 C1.5625 11.625 1.5625 11.625 -1 11 C-2.50662097 7.98675805 -2.17770373 5.31713623 -2 2 C-1.34 1.34 -0.68 0.68 0 0 Z " fill="#FCDDDA" transform="translate(553,188)"/>
<path d="M0 0 C-0.33 0.66 -0.66 1.32 -1 2 C-3.27399754 2.60076256 -5.55130576 2.9563154 -7.87109375 3.33984375 C-10.36790025 3.86888679 -10.36790025 3.86888679 -12 7 C-12.3125 4.6875 -12.3125 4.6875 -12 2 C-8.05545794 -1.58594733 -5.0039427 -1.07928176 0 0 Z " fill="#E01A21" transform="translate(585,185)"/>
<path d="M0 0 C6.0546875 -0.1953125 6.0546875 -0.1953125 8 0 C8.66 0.66 9.32 1.32 10 2 C9 3 9 3 6.93359375 3.09765625 C6.10988281 3.08605469 5.28617188 3.07445312 4.4375 3.0625 C3.61121094 3.05347656 2.78492188 3.04445312 1.93359375 3.03515625 C1.29550781 3.02355469 0.65742187 3.01195312 0 3 C-0.33 3.66 -0.66 4.32 -1 5 C-1 2 -1 2 0 0 Z " fill="#E11B22" transform="translate(551,184)"/>
<path d="M0 0 C1.37478516 0.01740234 1.37478516 0.01740234 2.77734375 0.03515625 C3.69644531 0.04417969 4.61554688 0.05320313 5.5625 0.0625 C6.27277344 0.07410156 6.98304688 0.08570313 7.71484375 0.09765625 C8.04484375 1.08765625 8.37484375 2.07765625 8.71484375 3.09765625 C7.09020533 3.15161103 5.46505834 3.1904282 3.83984375 3.22265625 C2.93492187 3.24585938 2.03 3.2690625 1.09765625 3.29296875 C-1.28515625 3.09765625 -1.28515625 3.09765625 -3.28515625 1.09765625 C-2.28515625 0.09765625 -2.28515625 0.09765625 0 0 Z " fill="#DE1C22" transform="translate(500.28515625,183.90234375)"/>
<path d="M0 0 C3.3 0 6.6 0 10 0 C10 0.66 10 1.32 10 2 C9.01 2 8.02 2 7 2 C7 2.66 7 3.32 7 4 C4.69 3.67 2.38 3.34 0 3 C0 2.01 0 1.02 0 0 Z " fill="#FCE1DD" transform="translate(500,188)"/>
<path d="M0 0 C1.27230469 0.00902344 2.54460937 0.01804687 3.85546875 0.02734375 C5.31919922 0.04474609 5.31919922 0.04474609 6.8125 0.0625 C6.8125 0.3925 6.8125 0.7225 6.8125 1.0625 C5.76449219 1.15337891 5.76449219 1.15337891 4.6953125 1.24609375 C3.78523438 1.32988281 2.87515625 1.41367188 1.9375 1.5 C1.03257812 1.58121094 0.12765625 1.66242188 -0.8046875 1.74609375 C-3.19860861 1.93239285 -3.19860861 1.93239285 -5.1875 3.0625 C-7.8598621 3.19665472 -10.51000488 3.10568541 -13.1875 3.0625 C-8.60237138 0.00574759 -5.41643676 -0.04969208 0 0 Z " fill="#D73C3E" transform="translate(500.1875,107.9375)"/>
<path d="M0 0 C1.89492188 0.01353516 1.89492188 0.01353516 3.828125 0.02734375 C4.79234375 0.03894531 5.7565625 0.05054687 6.75 0.0625 C6.75 0.3925 6.75 0.7225 6.75 1.0625 C5.59371094 1.15337891 5.59371094 1.15337891 4.4140625 1.24609375 C2.90972656 1.37177734 2.90972656 1.37177734 1.375 1.5 C-0.12160156 1.62181641 -0.12160156 1.62181641 -1.6484375 1.74609375 C-4.22927613 1.91215626 -4.22927613 1.91215626 -6.25 3.0625 C-8.9223621 3.19665472 -11.57250488 3.10568541 -14.25 3.0625 C-9.43910622 -0.14476252 -5.75185764 -0.05325794 0 0 Z " fill="#D6393A" transform="translate(429.25,107.9375)"/>
<path d="M0 0 C3.96 0 7.92 0 12 0 C12.33 0.66 12.66 1.32 13 2 C9.37 2 5.74 2 2 2 C1.67 3.65 1.34 5.3 1 7 C0.67 7 0.34 7 0 7 C0 4.69 0 2.38 0 0 Z " fill="#DD1C21" transform="translate(475,185)"/>
<path d="M0 0 C0.77085937 -0.01417969 1.54171875 -0.02835938 2.3359375 -0.04296875 C4.84334888 0.20948393 6.45761902 0.93556533 8.625 2.1875 C7.97273437 2.16429687 7.32046875 2.14109375 6.6484375 2.1171875 C1.53801097 2.01166247 -2.57925033 2.16823698 -7.375 4.1875 C-7.045 3.1975 -6.715 2.2075 -6.375 1.1875 C-4.04904054 0.02452027 -2.58776769 0.02149309 0 0 Z " fill="#D13536" transform="translate(579.375,182.8125)"/>
<path d="M0 0 C1.42809691 2.85619382 0.56733756 4.45501694 -0.25 7.5 C-0.50265625 8.4796875 -0.7553125 9.459375 -1.015625 10.46875 C-2 13 -2 13 -5 15 C-3.25740319 4.44191344 -3.25740319 4.44191344 0 0 Z " fill="#AA3D3D" transform="translate(376,68)"/>
<path d="M0 0 C2.35171131 0.59861742 4.6859378 1.26924352 7 2 C7.33 2.66 7.66 3.32 8 4 C7.01 4.495 7.01 4.495 6 5 C4.9805881 5.98020375 3.97753644 6.97803008 3 8 C2.67 7.34 2.34 6.68 2 6 C1.01 5.67 0.02 5.34 -1 5 C-0.01 4.67 0.98 4.34 2 4 C2.33 3.34 2.66 2.68 3 2 C2.01 2 1.02 2 0 2 C0 1.34 0 0.68 0 0 Z " fill="#BE3B3B" transform="translate(481,191)"/>
<path d="M0 0 C3.375 -0.125 3.375 -0.125 7 0 C7.66 0.66 8.32 1.32 9 2 C8.34 2 7.68 2 7 2 C7 2.66 7 3.32 7 4 C4.69 3.67 2.38 3.34 0 3 C0 2.01 0 1.02 0 0 Z " fill="#FEE9E5" transform="translate(397,188)"/>
<path d="M0 0 C2.97 0.495 2.97 0.495 6 1 C6 1.99 6 2.98 6 4 C2.625 4.125 2.625 4.125 -1 4 C-1.66 3.34 -2.32 2.68 -3 2 C-2.01 2 -1.02 2 0 2 C0 1.34 0 0.68 0 0 Z " fill="#FBE4E1" transform="translate(395,196)"/>
<path d="M0 0 C1.65 0 3.3 0 5 0 C5.33 0.99 5.66 1.98 6 3 C3.36 3.33 0.72 3.66 -2 4 C-1.34 2.68 -0.68 1.36 0 0 Z " fill="#FBDED9" transform="translate(456,188)"/>
<path d="M0 0 C3.375 -0.1875 3.375 -0.1875 7 0 C7.66 0.99 8.32 1.98 9 3 C6.03 3 3.06 3 0 3 C0 2.01 0 1.02 0 0 Z " fill="#E21B22" transform="translate(531,184)"/>
<path d="M0 0 C0.99 0.33 1.98 0.66 3 1 C2.67 2.32 2.34 3.64 2 5 C-0.97 4.67 -3.94 4.34 -7 4 C-7.33 4.99 -7.66 5.98 -8 7 C-8 5.68 -8 4.36 -8 3 C-6.865625 2.87625 -5.73125 2.7525 -4.5625 2.625 C-3.386875 2.41875 -2.21125 2.2125 -1 2 C-0.67 1.34 -0.34 0.68 0 0 Z " fill="#CE4341" transform="translate(404,184)"/>
<path d="M0 0 C0.33 0 0.66 0 1 0 C1.33016357 4.73234457 0.66456842 7.10563077 -2 11 C-2.68096422 12.32608822 -3.35330586 13.65686601 -4 15 C-5.32830615 11.01508155 -4.23204404 9.59951452 -2.5625 5.8125 C-2.08941406 4.72582031 -1.61632813 3.63914063 -1.12890625 2.51953125 C-0.75636719 1.68808594 -0.38382813 0.85664063 0 0 Z " fill="#C13C3B" transform="translate(38,129)"/>
<path d="M0 0 C-0.99 1.485 -0.99 1.485 -2 3 C-5.625 3.1875 -5.625 3.1875 -9 3 C-9.33 2.01 -9.66 1.02 -10 0 C-2.25 -1.125 -2.25 -1.125 0 0 Z " fill="#A82528" transform="translate(586,73)"/>
<path d="M0 0 C0 3.50741329 -1.21024589 5.32486191 -2.9765625 8.28125 C-4.08499928 10.14274688 -5.06267219 12.04723373 -6 14 C-7 11 -7 11 -6.328125 9.0625 C-5.97234375 8.381875 -5.6165625 7.70125 -5.25 7 C-4.90453125 6.319375 -4.5590625 5.63875 -4.203125 4.9375 C-2.9910575 2.98559909 -1.68593353 1.5502837 0 0 Z " fill="#CD4543" transform="translate(433,39)"/>
<path d="M0 0 C0 0.66 0 1.32 0 2 C-7.26 1.67 -14.52 1.34 -22 1 C-22 0.67 -22 0.34 -22 0 C-18.70880065 -0.1964031 -15.41703066 -0.38060745 -12.125 -0.5625 C-11.18785156 -0.61857422 -10.25070313 -0.67464844 -9.28515625 -0.73242188 C-8.38925781 -0.78076172 -7.49335938 -0.82910156 -6.5703125 -0.87890625 C-5.74289551 -0.9260376 -4.91547852 -0.97316895 -4.06298828 -1.02172852 C-2 -1 -2 -1 0 0 Z " fill="#E2181F" transform="translate(190,40)"/>
<path d="M0 0 C1.98 0 3.96 0 6 0 C6 1.32 6 2.64 6 4 C4.02 4 2.04 4 0 4 C0 2.68 0 1.36 0 0 Z " fill="#FEFCFB" transform="translate(347,194)"/>
<path d="M0 0 C2 2 2 2 2.1953125 4.1640625 C2.16050781 5.38222656 2.16050781 5.38222656 2.125 6.625 C2.10695313 7.44226563 2.08890625 8.25953125 2.0703125 9.1015625 C2.04710937 9.72804687 2.02390625 10.35453125 2 11 C1.01 10.67 0.02 10.34 -1 10 C-0.67 6.7 -0.34 3.4 0 0 Z " fill="#5B529B" transform="translate(315,180)"/>
<path d="M0 0 C-5.25525143 4.03309994 -5.25525143 4.03309994 -8.8125 3.875 C-11 3 -11 3 -12 1 C-10.56496445 0.63597631 -9.12683494 0.28413409 -7.6875 -0.0625 C-6.88699219 -0.25972656 -6.08648437 -0.45695312 -5.26171875 -0.66015625 C-3 -1 -3 -1 0 0 Z " fill="#AB2D2F" transform="translate(459,72)"/>
<path d="M0 0 C0.33 0 0.66 0 1 0 C1.04898438 1.03640625 1.09796875 2.0728125 1.1484375 3.140625 C1.22349597 4.51044208 1.29904247 5.88023248 1.375 7.25 C1.4059375 7.93191406 1.436875 8.61382812 1.46875 9.31640625 C1.68259374 12.98739038 2.01077055 15.86251616 4 19 C3.01 18.67 2.02 18.34 1 18 C-0.59412284 14.81175432 -0.10174735 11.37103338 -0.0625 7.875 C-0.05798828 7.12089844 -0.05347656 6.36679688 -0.04882812 5.58984375 C-0.03703499 3.72652873 -0.01909942 1.86325445 0 0 Z " fill="#9D3334" transform="translate(528,65)"/>
<path d="M0 0 C0.99 0 1.98 0 3 0 C3 0.66 3 1.32 3 2 C3.99 2 4.98 2 6 2 C5.67 2.99 5.34 3.98 5 5 C2.03824877 4.38722388 0.61941217 3.74627478 -2 2 C-1.34 2 -0.68 2 0 2 C0 1.34 0 0.68 0 0 Z " fill="#C12024" transform="translate(478,191)"/>
<path d="M0 0 C0 1.65 0 3.3 0 5 C-1.98 5.33 -3.96 5.66 -6 6 C-3.84615385 0 -3.84615385 0 0 0 Z " fill="#CE1D22" transform="translate(467,188)"/>
<path d="M0 0 C3 1 3 1 4.1875 3.0625 C4.455625 3.701875 4.72375 4.34125 5 5 C3.35 5.33 1.7 5.66 0 6 C-0.38218767 4.34385343 -0.71395102 2.67542976 -1 1 C-0.67 0.67 -0.34 0.34 0 0 Z " fill="#AC3837" transform="translate(391,198)"/>
<path d="M0 0 C1.5625 1.4375 1.5625 1.4375 3 4 C2.96846324 7.05380927 2.53266629 9.99653222 2 13 C1.67 13 1.34 13 1 13 C-0.10228696 8.59085217 -0.07654536 4.51617599 0 0 Z " fill="#5F4F96" transform="translate(295,186)"/>
<path d="M0 0 C0.33 0.99 0.66 1.98 1 3 C-0.4375 5.1875 -0.4375 5.1875 -2 7 C-2 6.34 -2 5.68 -2 5 C-2.99 4.67 -3.98 4.34 -5 4 C-5 3.34 -5 2.68 -5 2 C-2 0 -2 0 0 0 Z " fill="#DA2025" transform="translate(357,179)"/>
<path d="M0 0 C0.33 0 0.66 0 1 0 C1 3.63 1 7.26 1 11 C0.01 11.33 -0.98 11.66 -2 12 C-1 3.42857143 -1 3.42857143 0 0 Z " fill="#D14746" transform="translate(28,157)"/>
<path d="M0 0 C2.475 0.99 2.475 0.99 5 2 C5 2.66 5 3.32 5 4 C6.65 4.33 8.3 4.66 10 5 C10 5.66 10 6.32 10 7 C6.12697862 5.85569823 2.99736561 4.76679902 0 2 C0 1.34 0 0.68 0 0 Z " fill="#A53939" transform="translate(432,77)"/>
<path d="M0 0 C-3.96 1.98 -7.92 3.96 -12 6 C-12 5.01 -12 4.02 -12 3 C-10.5682384 2.30062798 -9.12932968 1.61587282 -7.6875 0.9375 C-6.48673828 0.36322266 -6.48673828 0.36322266 -5.26171875 -0.22265625 C-3 -1 -3 -1 0 0 Z " fill="#F7C2BB" transform="translate(136,65)"/>
<path d="M0 0 C0.33 0 0.66 0 1 0 C1.92470553 4.71599818 2.22923777 7.67265609 0 12 C-0.66 12 -1.32 12 -2 12 C-1 3.42857143 -1 3.42857143 0 0 Z " fill="#C64544" transform="translate(371,38)"/>
<path d="M0 0 C0.66 0 1.32 0 2 0 C2 0.99 2 1.98 2 3 C4.31 3 6.62 3 9 3 C9 3.33 9 3.66 9 4 C5.37 4 1.74 4 -2 4 C-1.34 2.68 -0.68 1.36 0 0 Z " fill="#AB1D22" transform="translate(150,38)"/>
<path d="M0 0 C-0.33 1.32 -0.66 2.64 -1 4 C-1.99 4 -2.98 4 -4 4 C-4 5.98 -4 7.96 -4 10 C-4.33 10 -4.66 10 -5 10 C-5.29296875 3.9453125 -5.29296875 3.9453125 -5 2 C-2 0 -2 0 0 0 Z " fill="#D5383B" transform="translate(345,22)"/>
<path d="M0 0 C3.3 0.33 6.6 0.66 10 1 C10 1.33 10 1.66 10 2 C7.69 2 5.38 2 3 2 C3 2.66 3 3.32 3 4 C2.01 4 1.02 4 0 4 C0 2.68 0 1.36 0 0 Z " fill="#9C2829" transform="translate(494,199)"/>
<path d="M0 0 C2.31 0 4.62 0 7 0 C6.67 0.99 6.34 1.98 6 3 C4.02 3 2.04 3 0 3 C0 2.01 0 1.02 0 0 Z " fill="#AA1D21" transform="translate(475,201)"/>
<path d="M0 0 C2.97 0.33 5.94 0.66 9 1 C7.515 2.485 7.515 2.485 6 4 C6 3.34 6 2.68 6 2 C3.13275314 2.57344937 2.1385485 2.8614515 0 5 C0 3.35 0 1.7 0 0 Z " fill="#A778A9" transform="translate(175,96)"/>
<path d="M0 0 C3.3 0 6.6 0 10 0 C10.33 0.99 10.66 1.98 11 3 C7.37 2.34 3.74 1.68 0 1 C0 0.67 0 0.34 0 0 Z " fill="#E31A22" transform="translate(589,185)"/>
<path d="M0 0 C2.64 0.33 5.28 0.66 8 1 C8 1.33 8 1.66 8 2 C6.02 2 4.04 2 2 2 C2 2.99 2 3.98 2 5 C1.34 5 0.68 5 0 5 C0 3.35 0 1.7 0 0 Z " fill="#9B3232" transform="translate(473,199)"/>
<path d="M0 0 C0.99 0.33 1.98 0.66 3 1 C3.33 3.31 3.66 5.62 4 8 C3.01 8.495 3.01 8.495 2 9 C1.06576355 5.98968256 0.95550089 5.13349732 2 2 C1.34 2 0.68 2 0 2 C0 1.34 0 0.68 0 0 Z " fill="#B3413E" transform="translate(404,193)"/>
<path d="M0 0 C0.66 0.33 1.32 0.66 2 1 C1.39816251 3.02045442 0.72693904 5.02111039 0 7 C-0.99 7.495 -0.99 7.495 -2 8 C-1.125 1.125 -1.125 1.125 0 0 Z " fill="#CA1D24" transform="translate(575,188)"/>
<path d="M0 0 C0.33 0.99 0.66 1.98 1 3 C-0.9375 5.6875 -0.9375 5.6875 -3 8 C-3.66 7.67 -4.32 7.34 -5 7 C-3.35 4.69 -1.7 2.38 0 0 Z " fill="#B83737" transform="translate(80,111)"/>
<path d="M0 0 C0.66 0.33 1.32 0.66 2 1 C1.67 1.66 1.34 2.32 1 3 C2.98 3 4.96 3 7 3 C7 3.33 7 3.66 7 4 C4.03 4 1.06 4 -2 4 C-2 3.01 -2 2.02 -2 1 C-1.34 0.67 -0.68 0.34 0 0 Z " fill="#F4BBB4" transform="translate(588,84)"/>
</svg>
